<?xml version="1.0" encoding="utf-8"?>
<!-- Generator: Adobe Illustrator 28.2.0, SVG Export Plug-In . SVG Version: 6.00 Build 0)  -->
<svg version="1.1" id="Layer_1" xmlns="http://www.w3.org/2000/svg" xmlns:xlink="http://www.w3.org/1999/xlink" x="0px" y="0px"
	 viewBox="0 0 792 792" style="enable-background:new 0 0 792 792;" xml:space="preserve">
<style type="text/css">
	.st0{fill:#DCD9D4;}
	.st1{fill:#074261;}
</style>
<g>
	<g>
		<path class="st0" d="M581.73,78.55c0,22.19-18.08,40.26-40.26,40.26c-4.8,0-9.33-0.9-13.6-2.42L421.95,259.04
			c5.64,6.96,9.01,15.76,9.01,25.35c0,22.24-18.08,40.26-40.26,40.26c-22.19,0-40.26-18.02-40.26-40.26c0-2.37,0.21-4.69,0.63-6.96
			l-74.67-37.68c-6.43,13.75-20.34,23.29-36.47,23.29c-9.01,0-17.28-2.95-23.98-7.96l-91.06,67.82c2.85,5.48,4.48,11.75,4.48,18.39
			c0,22.19-18.02,40.26-40.26,40.26c-22.19,0-40.26-18.08-40.26-40.31c0-22.19,18.08-40.26,40.26-40.26c7.06,0,13.7,1.84,19.5,5.06
			l93.43-69.61c-1.53-4.27-2.42-8.85-2.42-13.65c0-22.19,18.08-40.26,40.26-40.26c19.66,0,36.04,14.12,39.58,32.72l82.05,41.47
			c7.38-7.75,17.71-12.59,29.19-12.59c4.16,0,8.22,0.63,12.02,1.84l106.5-143.39c-5.01-6.75-8.01-15.02-8.01-24.03
			c0-22.19,18.08-40.26,40.26-40.26C563.71,38.29,581.73,56.37,581.73,78.55z"/>
		<path class="st0" d="M756,580.65c0,95.43-77.62,173.06-173,173.06c-57.02,0-107.66-27.72-139.17-70.35v34.25
			c0,6.43-5.22,11.59-11.65,11.59h-83c-6.43,0-11.59-5.16-11.59-11.59V373.92c0-6.43,5.16-11.59,11.59-11.59h83
			c6.43,0,11.65,5.16,11.65,11.59V478c12.17-16.49,27.3-30.77,44.53-42.05V207.71c0-6.43,5.22-11.59,11.59-11.59h83
			c6.43,0,11.65,5.16,11.65,11.59v200.35C684.6,414.08,756,489.17,756,580.65z"/>
		<path class="st0" d="M293,327.55v390.06c0,6.43-5.16,11.59-11.59,11.59h-83c-6.43,0-11.59-5.16-11.59-11.59l-0.05-390.06
			c0-6.43,5.22-11.59,11.65-11.59h83C287.84,315.95,293,321.12,293,327.55z"/>
		<path class="st0" d="M142.24,433.31v284.3c0,6.43-5.22,11.59-11.59,11.59h-83c-6.43,0-11.65-5.16-11.65-11.59v-284.3
			c0-6.38,5.22-11.59,11.65-11.59h83C137.02,421.72,142.24,426.93,142.24,433.31z"/>
	</g>
	<path class="st1" d="M553.65,543.04c0,17.69,8.23,21.06,31.73,26.19c19.96,4.36,50.14,10.94,50.14,49.11
		c0,27.29-19.14,43.47-40.93,47.71v12.78c0,6.41-5.2,11.61-11.61,11.61c-6.41,0-11.61-5.2-11.61-11.61v-12.78
		c-21.79-4.23-40.93-20.41-40.93-47.71c0-6.41,5.2-11.61,11.61-11.61c6.41,0,11.61,5.2,11.61,11.61c0,20.24,18.44,25.65,29.32,25.65
		c10.89,0,29.32-5.4,29.32-25.65c0-17.87-8.26-21.26-31.87-26.42c-19.91-4.34-50-10.91-50-48.88c0-27.29,19.14-43.47,40.93-47.7
		v-12.78c0-6.41,5.2-11.61,11.61-11.61c6.41,0,11.61,5.2,11.61,11.61v12.78c21.79,4.23,40.93,20.41,40.93,47.7
		c0,6.41-5.2,11.61-11.61,11.61c-6.41,0-11.61-5.2-11.61-11.61c0-20.24-18.44-25.64-29.32-25.64
		C572.08,517.4,553.65,522.8,553.65,543.04L553.65,543.04z M755.99,580.68c0,95.41-77.62,173.03-173.03,173.03
		c-56.99,0-107.62-27.71-139.17-70.35v34.26c0,6.41-5.2,11.61-11.61,11.61h-83c-6.41,0-11.61-5.2-11.61-11.61v-343.7
		c0-6.41,5.2-11.61,11.61-11.61h83c6.41,0,11.61,5.2,11.61,11.61v104.1c12.22-16.53,27.33-30.79,44.55-42.09v-228.2
		c0-6.41,5.2-11.61,11.61-11.61h83c6.41,0,11.61,5.2,11.61,11.61v200.37C684.58,414.1,755.99,489.19,755.99,580.68L755.99,580.68z
		 M514.96,421.61c0.45-0.19,0.9-0.39,1.35-0.58c1.97-0.82,3.94-1.6,5.93-2.34c0.7-0.26,1.38-0.53,2.08-0.78
		c1.75-0.63,3.53-1.23,5.3-1.8c0.91-0.29,1.81-0.61,2.72-0.88c1.59-0.49,3.19-0.92,4.79-1.36c1.08-0.29,2.15-0.61,3.24-0.89
		c1.52-0.39,3.05-0.71,4.57-1.06c2.13-0.48,4.27-0.92,6.43-1.32c1.57-0.29,3.13-0.6,4.71-0.85c1.29-0.2,2.58-0.35,3.88-0.52
		c1.45-0.19,2.9-0.39,4.36-0.55c1.25-0.13,2.51-0.23,3.76-0.33c1.09-0.09,2.17-0.22,3.26-0.29V219.33h-59.78v203.71
		C512.7,422.53,513.84,422.08,514.96,421.61L514.96,421.61z M420.39,639.9c-1.47-4.01-2.75-8.12-3.92-12.27
		c-0.24-0.87-0.51-1.75-0.75-2.63c-1.08-4.08-2-8.22-2.78-12.41c-0.18-0.96-0.35-1.93-0.52-2.9c-0.71-4.23-1.29-8.5-1.7-12.83
		c-0.07-0.77-0.12-1.55-0.18-2.32c-0.36-4.57-0.61-9.18-0.61-13.85s0.24-9.28,0.61-13.86c0.06-0.77,0.1-1.55,0.18-2.31
		c0.4-4.33,0.98-8.61,1.7-12.85c0.16-0.96,0.33-1.91,0.51-2.87c0.79-4.2,1.7-8.35,2.79-12.43c0.23-0.86,0.5-1.72,0.74-2.58
		c1.18-4.17,2.46-8.3,3.94-12.34c0.07-0.18,0.11-0.36,0.17-0.54V385.52H360.8v320.47h59.78v-65.51
		C420.51,640.3,420.46,640.09,420.39,639.9L420.39,639.9z M732.77,580.68c0-82.59-67.18-149.79-149.77-149.8h-0.02
		c-3.11,0-6.21,0.13-9.29,0.31c-0.78,0.05-1.56,0.12-2.33,0.18c-2.43,0.18-4.85,0.44-7.27,0.74c-0.72,0.09-1.44,0.18-2.16,0.28
		c-6.07,0.86-12.06,2.09-17.96,3.68c-0.84,0.23-1.68,0.48-2.52,0.71c-2.08,0.61-4.16,1.25-6.21,1.95c-0.95,0.32-1.91,0.63-2.85,0.96
		c-2.58,0.92-5.15,1.91-7.67,2.99c-1.23,0.52-2.43,1.1-3.64,1.64c-1.37,0.62-2.74,1.26-4.09,1.92c-1.47,0.72-2.93,1.47-4.38,2.24
		c-0.98,0.53-1.96,1.08-2.94,1.63c-30.55,17.23-54.48,44.85-66.95,78.04c-1.31,3.49-2.47,7.03-3.51,10.59
		c-0.25,0.87-0.5,1.72-0.74,2.58c-0.99,3.63-1.85,7.3-2.55,11c-0.15,0.8-0.29,1.6-0.43,2.41c-0.67,3.85-1.23,7.71-1.6,11.61
		c-0.05,0.57-0.08,1.15-0.13,1.72c-0.35,4.18-0.57,8.38-0.57,12.6v0.01c0,4.22,0.22,8.41,0.57,12.58c0.05,0.58,0.07,1.16,0.13,1.74
		c0.37,3.89,0.92,7.75,1.59,11.59c0.14,0.81,0.28,1.63,0.44,2.43c0.7,3.68,1.56,7.35,2.54,10.97c0.24,0.88,0.5,1.75,0.75,2.63
		c1.03,3.55,2.19,7.07,3.5,10.55c21.32,56.77,76.15,97.31,140.28,97.31C665.57,730.49,732.77,663.28,732.77,580.68L732.77,580.68z
		 M142.23,433.34v284.27c0,6.41-5.2,11.61-11.61,11.61h-83c-6.41,0-11.61-5.2-11.61-11.61V433.34c0-6.41,5.2-11.61,11.61-11.61h83
		C137.03,421.73,142.23,426.93,142.23,433.34z M119,444.95H59.23v261.04H119V444.95z M293.01,327.56v390.05
		c0,6.41-5.2,11.61-11.61,11.61h-83c-6.41,0-11.61-5.2-11.61-11.61l0-390.05c0-6.41,5.2-11.61,11.61-11.61h83
		C287.81,315.95,293.01,321.14,293.01,327.56L293.01,327.56z M269.79,339.18h-59.78V706h59.78V339.18z M48.85,341.28
		c0-22.2,18.07-40.28,40.27-40.28c7.07,0,13.72,1.85,19.49,5.06l93.45-69.6c-1.55-4.27-2.44-8.86-2.44-13.67
		c0-22.2,18.07-40.27,40.28-40.27c19.64,0,36.01,14.14,39.55,32.76l82.08,41.43c7.35-7.72,17.69-12.58,29.16-12.58
		c4.2,0,8.24,0.65,12.04,1.84l106.48-143.4c-5.01-6.72-8.02-15.01-8.02-24.01c0-22.2,18.07-40.27,40.28-40.27
		c22.21,0,40.27,18.07,40.27,40.27c0,22.2-18.07,40.27-40.27,40.27c-4.79,0-9.35-0.88-13.62-2.42L421.94,259.06
		c5.63,6.93,9.02,15.75,9.02,25.35c0,22.2-18.07,40.27-40.27,40.27c-22.2,0-40.27-18.07-40.27-40.27c0-2.38,0.24-4.7,0.65-6.97
		l-74.67-37.69c-6.41,13.75-20.33,23.32-36.48,23.32c-8.98,0-17.25-2.99-23.96-7.98l-91.04,67.8c2.85,5.52,4.48,11.76,4.48,18.39
		c0,22.2-18.07,40.27-40.28,40.27C66.9,381.56,48.84,363.49,48.85,341.28L48.85,341.28z M524.42,78.57c0,9.4,7.65,17.05,17.05,17.05
		s17.05-7.65,17.05-17.05s-7.65-17.05-17.05-17.05C532.06,61.51,524.42,69.17,524.42,78.57z M373.63,284.41
		c0,9.4,7.65,17.05,17.05,17.05c9.4,0,17.05-7.65,17.05-17.05c0-9.4-7.65-17.05-17.05-17.05
		C381.28,267.36,373.63,275.01,373.63,284.41z M222.85,222.79c0,9.4,7.65,17.05,17.05,17.05c9.4,0,17.05-7.65,17.05-17.05
		c0-9.4-7.65-17.05-17.05-17.05C230.5,205.74,222.85,213.39,222.85,222.79z M72.07,341.28c0,9.4,7.65,17.05,17.05,17.05
		s17.05-7.65,17.05-17.05s-7.65-17.05-17.05-17.05C79.72,324.22,72.07,331.87,72.07,341.28z"/>
</g>
</svg>
