<?xml version="1.0" encoding="utf-8"?>
<!-- Generator: Adobe Illustrator 28.2.0, SVG Export Plug-In . SVG Version: 6.00 Build 0)  -->
<svg version="1.1" id="Layer_1" xmlns="http://www.w3.org/2000/svg" xmlns:xlink="http://www.w3.org/1999/xlink" x="0px" y="0px"
	 viewBox="0 290 792 200" style="enable-background:new 0 0 0 0;" xml:space="preserve">
<style type="text/css">
	.st0{fill:#074261;}
	.st1{fill:#E2352D;}
</style>
<g>
	<g>
		<path class="st0" d="M128.97,383.27c0.1-0.5,0.2-0.96,0.3-1.36c0.1-0.4,0.2-0.86,0.3-1.36c1.41-7.27,2.93-14.35,4.55-21.22
			c1.62-6.87,3.11-12.98,4.47-18.34c1.36-5.35,2.52-9.65,3.49-12.88c0.96-3.23,1.44-4.9,1.44-5c0.5-1.61,0.2-3.13-0.91-4.55
			c-1.01-1.31-2.38-1.97-4.09-1.97c-12.83,0-24.76,6.47-35.77,19.4c-4.65,5.56-8.97,11.74-12.96,18.56
			c-3.99,6.82-7.91,13.72-11.75,20.69c-2.02,3.54-4.19,5.3-6.52,5.3c-0.81,0-1.67-0.15-2.58-0.45c-0.91-0.3-1.92-0.71-3.03-1.21
			c-2.63-1.21-4.88-2.93-6.74-5.15c-1.87-2.22-2.8-5.25-2.8-9.09c0-1.41-0.51-2.63-1.52-3.64c-1.01-1.01-2.22-1.52-3.64-1.52
			c-1.42,0-2.63,0.51-3.64,1.52c-1.01,1.01-1.52,2.22-1.52,3.64c0,0.81,0.02,1.54,0.08,2.2c0.05,0.66,0.13,1.29,0.23,1.89
			c-1.52-0.81-3.26-1.52-5.23-2.12c-1.97-0.61-4.27-0.91-6.9-0.91c-4.85,0-9.35,0.89-13.49,2.65c-4.14,1.77-7.76,4.17-10.84,7.2
			c-3.08,3.03-5.51,6.59-7.27,10.68C0.88,390.32,0,394.74,0,399.49c0,4.85,0.81,9.4,2.43,13.64c1.61,4.24,3.86,7.91,6.74,10.99
			c2.88,3.08,6.37,5.53,10.46,7.35c4.09,1.82,8.61,2.73,13.56,2.73c5.05,0,9.72-1.08,14.02-3.26c4.29-2.17,8.21-4.98,11.74-8.41
			c3.54-3.43,6.77-7.25,9.7-11.44c2.93-4.19,5.56-8.26,7.88-12.2c1.72-3.03,3.54-4.82,5.46-5.38c1.92-0.55,3.84-0.88,5.76-0.99
			c3.54,0.2,6.97,0.33,10.31,0.38c3.33,0.05,6.67,0.08,10,0.08c2.22,0,4.07,0.83,5.53,2.5c1.46,1.67,1.89,4.57,1.29,8.71
			c-0.91,6.67-1.52,12.63-1.82,17.88c-0.51,7.98-0.25,14.42,0.76,19.32c1.01,4.9,2.78,8.51,5.3,10.84c1.11,0.91,2.27,1.36,3.49,1.36
			c1.61,0,2.88-0.61,3.79-1.82c1.01-1.11,1.49-2.35,1.44-3.71c-0.05-1.36-0.63-2.55-1.74-3.56c-0.1-0.1-0.36-0.48-0.76-1.14
			c-0.41-0.66-0.78-1.8-1.14-3.41c-0.35-1.62-0.63-3.81-0.83-6.59c-0.2-2.78-0.2-6.34,0-10.68c0.2-4.14,0.63-8.69,1.29-13.64
			c0.66-4.95,1.49-10.36,2.5-16.22c1.31-0.2,2.4-0.76,3.26-1.67c0.86-0.91,1.29-2.07,1.29-3.49c0-0.91-0.25-1.77-0.76-2.58
			C130.43,384.28,129.78,383.67,128.97,383.27z M67.74,392.97c-0.1,0.81-0.66,1.87-1.67,3.18c-1.72,2.83-3.71,5.89-5.99,9.17
			c-2.27,3.28-4.8,6.29-7.58,9.02c-2.78,2.73-5.79,5-9.02,6.82c-3.23,1.82-6.67,2.73-10.31,2.73c-2.73,0-5.46-0.48-8.18-1.44
			c-2.73-0.96-5.18-2.45-7.35-4.47c-2.17-2.02-3.94-4.55-5.3-7.58s-2.05-6.67-2.05-10.91c0-3.33,0.63-6.41,1.89-9.24
			c1.26-2.83,2.96-5.3,5.08-7.43s4.65-3.79,7.58-5c2.93-1.21,6.06-1.82,9.4-1.82c2.73,0,4.87,0.51,6.44,1.52
			c1.57,1.01,2.75,2.17,3.56,3.49c0.81,1.31,1.31,2.65,1.52,4.02c0.2,1.36,0.3,2.4,0.3,3.11c0,1.01-0.28,2.15-0.83,3.41
			c-0.56,1.26-1.36,2.45-2.42,3.56c-1.06,1.11-2.4,2.05-4.02,2.8c-1.62,0.76-3.49,1.14-5.61,1.14c-1.42,0-2.63,0.51-3.64,1.52
			c-1.01,1.01-1.52,2.22-1.52,3.64c0,1.42,0.5,2.63,1.52,3.64c1.01,1.01,2.22,1.52,3.64,1.52c5.46,0,10.31-1.61,14.55-4.85
			c4.24-3.23,7.02-7.53,8.34-12.88c0.4-1.11,0.66-2.05,0.76-2.8c0.1-0.76,0.71-1.14,1.82-1.14c0.71,0,1.97,0.3,3.79,0.91
			c0.91,0.3,1.82,0.63,2.73,0.99c0.91,0.35,1.59,0.81,2.05,1.36C67.67,391.48,67.84,392.16,67.74,392.97z M126.39,347.35
			c-2.02,8.18-4.04,16.97-6.06,26.37c-0.51,2.22-1.11,3.92-1.82,5.08c-0.71,1.16-1.47,2.02-2.27,2.58c-0.81,0.56-1.64,0.89-2.5,0.99
			c-0.86,0.1-1.69,0.15-2.5,0.15h-5.76c-2.33,0-4.62,0-6.9,0c-2.27,0-4.67-0.05-7.2-0.15c-1.72,0-2.8-0.5-3.26-1.52
			c-0.45-1.01-0.28-2.17,0.53-3.49c3.43-6.37,6.97-12.53,10.61-18.49c3.64-5.96,7.43-11.31,11.37-16.06
			c6.87-8.08,13.79-13.08,20.76-15C130.08,332.65,128.41,339.17,126.39,347.35z"/>
		<path class="st0" d="M508.07,391.76c-0.66-1.21-1.69-2.07-3.11-2.58c-0.3-0.1-0.76-0.15-1.36-0.15c-1.11,0-2.17,0.33-3.18,0.99
			c-1.01,0.66-1.67,1.54-1.97,2.65c-0.61,1.92-1.52,4.6-2.73,8.03c-1.21,3.44-2.7,6.82-4.47,10.15c-1.77,3.33-3.77,6.21-5.99,8.64
			c-2.22,2.43-4.65,3.64-7.27,3.64c-2.02,0-3.77-0.93-5.23-2.8c-1.47-1.87-2.2-4.32-2.2-7.35c0-0.91,0.2-2.88,0.61-5.91
			c0.36-2.73,0.83-6.06,1.4-9.94c0.27-0.94,0.42-1.49,0.42-1.58c0.23-0.8,0.27-1.56,0.16-2.3c0.56-3.77,1.19-7.86,1.89-12.33
			c0.86-5.51,1.77-11.14,2.73-16.9c0.96-5.76,1.92-11.47,2.88-17.12c0.96-5.66,1.84-10.86,2.65-15.61c0.2-1.41-0.1-2.7-0.91-3.86
			c-0.81-1.16-1.92-1.84-3.33-2.05c-1.52,0-2.83,0.28-3.94,0.83c-1.11,0.56-1.82,1.69-2.12,3.41c-0.2,1.31-0.66,4.09-1.36,8.34
			c-0.71,4.24-1.54,9.22-2.5,14.93c-0.96,5.71-1.95,11.82-2.96,18.34c-1.01,6.52-1.97,12.63-2.88,18.34
			c-0.31,1.93-0.59,3.74-0.85,5.51c-0.72,2.65-1.71,5.38-3.01,8.21c-1.67,3.64-3.74,6.97-6.21,10c-2.48,3.03-5.31,5.53-8.49,7.5
			c-3.18,1.97-6.69,2.96-10.53,2.96c-1.82,0-3.41-0.35-4.77-1.06c-1.36-0.71-2.53-1.67-3.49-2.88c-0.96-1.21-1.69-2.58-2.2-4.09
			c-0.51-1.52-0.86-3.08-1.06-4.7c-0.3-2.52,0-4.47,0.91-5.84c0.91-1.36,2.48-2.45,4.7-3.26c3.33-1.01,6.57-2.58,9.7-4.7
			c3.13-2.12,5.91-4.6,8.34-7.43c2.43-2.83,4.37-5.96,5.84-9.4c1.46-3.43,2.2-6.92,2.2-10.46c0-3.74-1.09-6.84-3.26-9.32
			c-2.17-2.47-5.18-3.71-9.02-3.71c-1.92,0-4.19,0.51-6.82,1.52c-2.63,1.01-5.31,2.83-8.03,5.46c-2.73,2.63-5.3,6.14-7.73,10.53
			s-4.4,10.03-5.91,16.9c-0.15,0.69-0.28,1.37-0.4,2.04c-1.84,6.08-3.67,11.09-5.51,15.01c-1.92,4.09-3.79,7.27-5.61,9.55
			c-1.82,2.27-3.54,3.84-5.15,4.7c-1.62,0.86-3.08,1.29-4.39,1.29c-1.42,0-2.4-0.18-2.96-0.53c-0.56-0.35-0.94-0.63-1.14-0.83
			c-0.71-0.71-1.19-1.77-1.44-3.18c-0.25-1.41-0.28-3.13-0.08-5.15c0.2-2.63,0.53-5.46,0.99-8.49c0.45-3.03,0.91-5.96,1.36-8.79
			c0.45-2.83,0.91-5.4,1.36-7.73c0.45-2.32,0.83-4.04,1.14-5.15c0.91-4.44,0.3-8.03-1.82-10.76c-1.82-2.32-4.4-3.49-7.73-3.49
			c-5.05,0-8.59-1.16-10.61-3.49c-0.61-0.71-1.06-1.49-1.36-2.35c-0.3-0.86-0.51-1.64-0.61-2.35c-0.1-0.71-0.13-1.34-0.08-1.89
			c0.05-0.55,0.08-0.88,0.08-0.99c0.2-1.41-0.08-2.68-0.83-3.79c-0.76-1.11-1.84-1.82-3.26-2.12c-0.2-0.1-0.56-0.15-1.06-0.15
			c-1.11,0-2.17,0.38-3.18,1.14c-1.01,0.76-1.62,1.74-1.82,2.96c-0.61,2.93-1.16,5.53-1.67,7.81c-0.51,2.27-1.06,4.83-1.67,7.65
			c-0.61,2.83-1.21,5.63-1.82,8.41c-0.61,2.78-1.21,5.38-1.82,7.81c-0.61,2.42-1.11,4.45-1.52,6.06c-0.06,0.2-0.08,0.4-0.11,0.6
			c-0.86,2.65-1.86,5.4-3,8.27c-1.47,3.69-3.13,7.12-5,10.3c-1.87,3.18-3.92,5.81-6.14,7.88c-2.22,2.07-4.6,3.11-7.12,3.11
			c-0.41,0-0.96-0.08-1.67-0.23c-0.71-0.15-1.36-0.58-1.97-1.29c-0.61-0.7-1.14-1.77-1.59-3.18c-0.45-1.41-0.68-3.43-0.68-6.06
			c0-1.31,0.28-3.96,0.83-7.96c0.55-3.99,1.26-8.56,2.12-13.72c0.86-5.15,1.79-10.53,2.8-16.14c1.01-5.61,1.97-10.68,2.88-15.23
			c0.2-1.41-0.1-2.73-0.91-3.94c-0.81-1.21-1.92-1.92-3.33-2.12c-0.2-0.1-0.56-0.15-1.06-0.15c-1.11,0-2.1,0.38-2.96,1.14
			c-0.86,0.76-1.54,1.79-2.05,3.11c-1.01,1.42-1.97,2.12-2.88,2.12c-1.01,0-2.2-0.4-3.56-1.21c-1.36-0.81-3.21-1.36-5.53-1.67
			c-0.41-0.1-0.81-0.15-1.21-0.15c-0.41,0-0.86,0-1.36,0c-4.55,0-8.51,1.11-11.9,3.33c-3.39,2.22-6.24,5.05-8.56,8.49
			c-2.33,3.44-4.19,7.2-5.61,11.29c-1.42,4.09-2.53,8.06-3.33,11.9c-0.01,0.06-0.02,0.12-0.03,0.18c-0.39,1.09-0.89,2.28-1.56,3.61
			c-0.76,1.51-1.69,2.98-2.8,4.39c-1.11,1.42-2.38,2.65-3.79,3.71c-1.42,1.06-2.98,1.74-4.7,2.05c-0.2,0-0.35,0.03-0.45,0.08
			c-0.1,0.05-0.25,0.08-0.45,0.08c-1.82,0-2.88-1.01-3.18-3.03c-0.3-2.02-0.2-4.34,0.3-6.97c1.01-7.17,1.03-13.54,0.08-19.1
			c-0.96-5.56-2.8-10.05-5.53-13.49c-3.13-3.94-7.17-6.06-12.12-6.37c-2.63,0-4.88,0.13-6.74,0.38c-1.87,0.25-3.97,1.04-6.29,2.35
			c-0.61,0.2-1.01,0.3-1.21,0.3c-1.01,0-1.87-0.66-2.58-1.97c-0.4-0.81-0.94-1.52-1.59-2.12c-0.66-0.61-1.49-1.01-2.5-1.21
			c-1.52,0-2.8,0.33-3.86,0.98c-1.06,0.66-1.74,1.79-2.05,3.41l-4.82,32.02c-0.06,0.14-0.13,0.27-0.18,0.41
			c-0.4,1.21-0.99,2.58-1.74,4.09c-0.76,1.51-1.69,2.98-2.8,4.39c-1.11,1.42-2.38,2.65-3.79,3.71c-1.42,1.06-2.98,1.74-4.7,2.05
			c-0.2,0-0.35,0.03-0.45,0.08c-0.1,0.05-0.25,0.08-0.45,0.08c-1.82,0-2.88-1.01-3.18-3.03c-0.3-2.02-0.2-4.34,0.3-6.97
			c1.01-7.17,1.03-13.54,0.08-19.1c-0.96-5.56-2.8-10.05-5.53-13.49c-3.13-3.94-7.17-6.06-12.12-6.37c-2.63,0-4.88,0.13-6.74,0.38
			c-1.87,0.25-3.97,1.04-6.29,2.35c-0.61,0.2-1.01,0.3-1.21,0.3c-1.01,0-1.87-0.66-2.58-1.97c-0.4-0.81-0.94-1.52-1.59-2.12
			c-0.66-0.61-1.49-1.01-2.5-1.21c-1.52,0-2.8,0.33-3.86,0.98c-1.06,0.66-1.74,1.79-2.05,3.41l-17.73,117.76
			c-0.2,1.41,0.13,2.68,0.99,3.79c0.86,1.11,2,1.77,3.41,1.97c0.1,0.1,0.36,0.15,0.76,0.15c1.21,0,2.33-0.4,3.33-1.21
			c1.01-0.81,1.62-1.87,1.82-3.18c0.71-4.55,1.31-8.66,1.82-12.35c0.5-3.69,1.03-7.3,1.59-10.84c0.55-3.54,1.09-7.15,1.59-10.84
			c0.5-3.69,1.11-7.8,1.82-12.35c0.1-0.81,0.38-1.52,0.83-2.12c0.45-0.61,1.19-0.91,2.2-0.91c0.91,0,1.92,0.35,3.03,1.06
			c2.83,1.92,6.11,2.98,9.85,3.18c8.28,0,14.85-3.43,19.7-10.31c0.91-1.21,1.69-2.22,2.35-3.03c0.66-0.81,1.34-1.46,2.05-1.97
			c0.71-0.5,1.52-0.86,2.42-1.06c0.91-0.2,2.07-0.3,3.49-0.3c3.33,0,6.39-0.58,9.17-1.74c1.29-0.54,2.5-1.17,3.64-1.88l-9.63,63.94
			c-0.2,1.41,0.13,2.68,0.99,3.79c0.86,1.11,2,1.77,3.41,1.97c0.1,0.1,0.36,0.15,0.76,0.15c1.21,0,2.33-0.4,3.33-1.21
			c1.01-0.81,1.62-1.87,1.82-3.18c0.71-4.55,1.31-8.66,1.82-12.35c0.5-3.69,1.03-7.3,1.59-10.84c0.55-3.54,1.09-7.15,1.59-10.84
			c0.5-3.69,1.11-7.8,1.82-12.35c0.1-0.81,0.38-1.52,0.83-2.12c0.45-0.61,1.19-0.91,2.2-0.91c0.91,0,1.92,0.35,3.03,1.06
			c2.83,1.92,6.11,2.98,9.85,3.18c8.28,0,14.85-3.43,19.7-10.31c0.91-1.21,1.69-2.22,2.35-3.03c0.66-0.81,1.34-1.46,2.05-1.97
			c0.71-0.5,1.52-0.86,2.42-1.06c0.91-0.2,2.07-0.3,3.49-0.3c3.33,0,6.39-0.58,9.17-1.74c1.86-0.78,3.55-1.75,5.12-2.89
			c0.04,0.41,0.06,0.82,0.11,1.22c0.71,6.11,2.52,10.89,5.46,14.32c1.82,2.12,3.84,3.56,6.06,4.32c2.22,0.76,4.7,1.14,7.43,1.14
			c2.32,0,4.42-0.38,6.29-1.14c1.87-0.76,3.56-1.57,5.08-2.43c1.52-0.86,2.85-1.67,4.02-2.43c1.16-0.76,2.25-1.14,3.26-1.14
			c1.21,0,2.22,0.71,3.03,2.12c2.83,3.64,6.57,5.61,11.21,5.91h1.21c4.65,0,8.71-1.36,12.2-4.09s6.49-6.06,9.02-10
			c2.52-3.94,4.65-8.18,6.37-12.73c1.72-4.55,3.08-8.64,4.09-12.28c0.1-0.27,0.15-0.54,0.2-0.8c0.42-1.4,0.84-2.99,1.24-4.8
			c0.55-2.52,1.08-5.2,1.59-8.03c0.2-1.41,0.83-2.35,1.89-2.8c1.06-0.45,2.3-0.68,3.71-0.68c1.52,0,2.93,0.15,4.24,0.45
			c1.62,0.41,3.18,1.06,4.7,1.97c1.52,0.91,2.12,2.38,1.82,4.4c-0.41,1.82-0.81,3.86-1.21,6.14c-0.41,2.27-0.81,4.67-1.21,7.2
			c-0.4,2.53-0.76,5.03-1.06,7.5c-0.3,2.48-0.56,4.83-0.76,7.05c-0.61,7.07,0.81,12.48,4.24,16.22c1.01,1.11,2.45,2.15,4.32,3.11
			c1.87,0.96,4.32,1.44,7.35,1.44c4.55,0,8.51-1.34,11.9-4.02c3.38-2.68,6.31-5.99,8.79-9.93c0.25-0.41,0.49-0.83,0.73-1.24
			c0.09,0.26,0.16,0.53,0.25,0.78c1.01,2.83,2.43,5.3,4.24,7.43c1.82,2.12,4.04,3.79,6.67,5c2.63,1.21,5.66,1.82,9.09,1.82
			c5.96,0,11.52-1.59,16.67-4.77c3.63-2.24,6.98-5.29,10.06-9.12c0.18,0.91,0.38,1.81,0.62,2.68c0.86,3.03,2.37,5.61,4.55,7.73
			c2.17,2.12,5.28,3.28,9.32,3.49c0.3,0.1,0.71,0.15,1.21,0.15c4.65,0,8.71-1.34,12.2-4.02c3.49-2.68,6.49-5.96,9.02-9.85
			c2.52-3.89,4.65-8.06,6.36-12.5c1.72-4.44,3.13-8.49,4.24-12.12C508.85,394.28,508.73,392.97,508.07,391.76z M425.25,387.82
			c1.31-4.24,2.73-7.6,4.24-10.08c1.52-2.47,2.98-4.42,4.4-5.83c1.72-1.72,3.31-2.93,4.77-3.64c1.46-0.71,2.6-1.06,3.41-1.06
			c0.7,0,1.16,0.1,1.36,0.3c0.1,0.2,0.2,0.51,0.3,0.91c0.1,0.4,0.15,0.91,0.15,1.52c0,1.92-0.43,3.92-1.29,5.99
			c-0.86,2.07-1.97,4.02-3.33,5.83c-1.36,1.82-2.91,3.49-4.62,5c-1.72,1.52-3.44,2.73-5.15,3.64c-1.21,0.51-2.07,0.76-2.58,0.76
			C425.2,391.15,424.64,390.04,425.25,387.82z M185.42,388.95c-0.15,0.66-0.53,1.24-1.14,1.74c-1.72,1.82-2.91,4.22-3.56,7.2
			c-0.66,2.98-0.63,5.89,0.08,8.71c0.2,0.71,0.35,1.54,0.45,2.5c0.1,0.96-0.15,2.15-0.76,3.56c-1.42,3.03-3.21,5.68-5.38,7.96
			c-2.17,2.27-5.08,3.41-8.71,3.41c-2.42-0.2-4.45-1.21-6.06-3.03c-1.62-1.92-2.73-4.55-3.33-7.88c-0.61-3.33-0.61-6.92,0-10.76
			c0.61-4.24,1.41-8.71,2.42-13.41c1.01-4.7,2.47-8.81,4.4-12.35c1.52-2.93,3.26-5.02,5.23-6.29c1.97-1.26,4.57-1.89,7.8-1.89
			c2.02,0.2,3.59,1.06,4.7,2.58c2.73,3.33,4.09,8.74,4.09,16.22C185.65,387.72,185.57,388.3,185.42,388.95z M251.65,388.95
			c-0.15,0.66-0.53,1.24-1.14,1.74c-1.72,1.82-2.91,4.22-3.56,7.2c-0.66,2.98-0.63,5.89,0.08,8.71c0.2,0.71,0.35,1.54,0.45,2.5
			c0.1,0.96-0.15,2.15-0.76,3.56c-1.42,3.03-3.21,5.68-5.38,7.96c-2.17,2.27-5.08,3.41-8.71,3.41c-2.42-0.2-4.45-1.21-6.06-3.03
			c-1.62-1.92-2.73-4.55-3.33-7.88c-0.61-3.33-0.61-6.92,0-10.76c0.61-4.24,1.41-8.71,2.42-13.41c1.01-4.7,2.47-8.81,4.4-12.35
			c1.52-2.93,3.26-5.02,5.23-6.29c1.97-1.26,4.57-1.89,7.8-1.89c2.02,0.2,3.59,1.06,4.7,2.58c2.73,3.33,4.09,8.74,4.09,16.22
			C251.88,387.72,251.8,388.3,251.65,388.95z M315.07,389.03c-0.41,2.73-1.01,6.04-1.82,9.93c-0.81,3.89-1.95,7.63-3.41,11.21
			c-1.47,3.59-3.39,6.69-5.76,9.32c-2.37,2.63-5.38,4.04-9.02,4.24c-1.01,0-1.92-0.13-2.73-0.38c-0.81-0.25-1.57-0.78-2.27-1.59
			c-1.42-1.61-2.43-4.62-3.03-9.02c-0.58-4.2-0.23-9.82,1.04-16.83c0.01-0.02,0.02-0.04,0.02-0.07c0.19-0.53,0.27-1.03,0.29-1.53
			c1.09-5.08,2.48-9.51,4.18-13.24c1.77-3.89,3.81-6.9,6.14-9.02c1.72-1.61,3.26-2.63,4.62-3.03c1.36-0.4,3.16-0.61,5.38-0.61
			c1.52,0.2,2.63,0.56,3.33,1.06c0.71,0.51,1.26,0.96,1.67,1.36C315.83,373.87,316.29,379.94,315.07,389.03z"/>
	</g>
	<g>
		<path class="st1" d="M612.57,347.5c-2.22-5.66-5.2-10.46-8.94-14.4c-3.74-3.94-7.96-7.12-12.65-9.55
			c-4.7-2.43-9.77-4.19-15.23-5.3c-5.46-1.11-11.06-1.67-16.82-1.67c-8.79,0-16.82,1.21-24.1,3.64c-4.85,1.62-9.22,3.79-13.11,6.52
			c-3.89,2.73-7.25,5.94-10.08,9.62c-2.83,3.69-5.03,7.78-6.59,12.28c-1.57,4.5-2.4,9.27-2.5,14.32c-0.2,7.68,1.41,14.5,4.85,20.46
			c2.83,4.85,6.49,8.64,10.99,11.37c4.49,2.73,9.42,4.09,14.78,4.09c2.83,0,5.31-0.3,7.43-0.91c1.11-0.2,2.05-0.38,2.8-0.53
			c0.76-0.15,1.44-0.23,2.05-0.23c1.72,0,2.63,0.61,2.73,1.82c0.1,1.21-0.1,3.13-0.61,5.76c-0.71,3.33-1.64,6.77-2.8,10.3
			c-1.16,3.54-2.7,6.77-4.62,9.7c-1.92,2.93-4.27,5.36-7.05,7.27c-2.78,1.92-6.19,2.88-10.23,2.88c-4.14,0-7.4-0.63-9.78-1.89
			c-2.37-1.26-4.47-2.6-6.29-4.02c-0.2-0.2-0.36-0.33-0.45-0.38c-0.1-0.05-0.25-0.18-0.45-0.38c-1.01-0.7-2.02-1.06-3.03-1.06
			c-1.72,0-3.13,0.71-4.24,2.12c-0.81,1.21-1.11,2.53-0.91,3.94c0.2,1.41,0.86,2.52,1.97,3.33c0.2,0.2,0.51,0.4,0.91,0.61
			c1.11,0.81,2.32,1.67,3.64,2.58c1.31,0.91,2.88,1.79,4.7,2.65c1.82,0.86,3.87,1.57,6.14,2.12c2.27,0.55,4.87,0.83,7.81,0.83
			c4.14,0,7.88-0.68,11.21-2.05c3.33-1.36,6.26-3.23,8.79-5.61c2.52-2.37,4.72-5.15,6.59-8.33c1.87-3.18,3.46-6.59,4.77-10.23
			c0.81-2.32,1.52-4.22,2.12-5.68c0.61-1.46,1.16-2.6,1.67-3.41c0.51-0.81,1.06-1.36,1.67-1.67c0.61-0.3,1.36-0.45,2.27-0.45
			c1.21,0,2.83,0.15,4.85,0.45c2.02,0.3,4.7,0.51,8.03,0.61c5.66,0,10.94-1.06,15.84-3.18c4.9-2.12,9.27-5.3,13.11-9.55
			c2.93-3.13,5.33-6.67,7.2-10.61c1.87-3.94,3.18-8.06,3.94-12.35c0.76-4.29,0.96-8.64,0.61-13.03
			C615.17,355.91,614.18,351.65,612.57,347.5z M604.69,371.37c-0.61,3.39-1.64,6.62-3.11,9.7c-1.47,3.08-3.31,5.83-5.53,8.26
			c-5.66,6.27-12.78,9.4-21.37,9.4c-1.72,0-3.59-0.15-5.61-0.45c-1.01-0.3-2.07-0.58-3.18-0.83c-1.11-0.25-2.1-0.73-2.96-1.44
			c-0.86-0.71-1.49-1.79-1.89-3.26c-0.4-1.46-0.4-3.51,0-6.14c0.3-2.52,0.58-5,0.83-7.43c0.25-2.42,0.48-4.8,0.68-7.12
			c0.5-4.24,0.96-8.31,1.36-12.2c0.4-3.89,0.91-7.4,1.52-10.53c0.81-3.94,1.59-6.62,2.35-8.03c0.76-1.41,1.29-2.22,1.59-2.42
			c1.11-0.91,1.74-2.07,1.89-3.49c0.15-1.41-0.23-2.68-1.14-3.79c-1.11-1.31-2.48-1.97-4.09-1.97c-1.62,0-3.06,0.71-4.32,2.12
			c-1.26,1.42-2.32,3.08-3.18,5c-0.86,1.92-1.57,3.89-2.12,5.91c-0.56,2.02-0.94,3.59-1.14,4.7c-0.3,1.82-0.56,3.54-0.76,5.15
			c-0.2,1.62-0.43,3.08-0.68,4.39c-0.25,1.31-0.53,2.35-0.83,3.11c-0.3,0.76-0.76,1.14-1.36,1.14c-0.71,0-1.72-0.66-3.03-1.97
			c-3.74-2.83-7.88-4.24-12.43-4.24c-1.41,0-2.65,0.53-3.71,1.59c-1.06,1.06-1.59,2.3-1.59,3.71c0,1.42,0.53,2.63,1.59,3.64
			c1.06,1.01,2.3,1.52,3.71,1.52c1.82,0,3.38,0.38,4.7,1.14c1.31,0.76,2.37,1.69,3.18,2.8c0.81,1.11,1.39,2.35,1.74,3.71
			c0.35,1.36,0.53,2.6,0.53,3.71c0,3.94-1.26,6.9-3.79,8.87c-2.53,1.97-5.66,2.96-9.4,2.96c-3.44,0-6.62-0.91-9.55-2.73
			c-2.93-1.82-5.3-4.34-7.12-7.58c-1.31-2.32-2.25-4.9-2.8-7.73c-0.56-2.83-0.74-5.73-0.53-8.71c0.2-2.98,0.76-5.96,1.67-8.94
			c0.91-2.98,2.17-5.73,3.79-8.26c2.02-3.33,4.55-6.14,7.58-8.41c3.03-2.27,6.34-4.09,9.93-5.46c3.58-1.36,7.37-2.35,11.37-2.96
			c3.99-0.61,7.96-0.91,11.9-0.91c4.44,0,8.89,0.4,13.34,1.21c4.45,0.81,8.61,2.17,12.5,4.09c3.89,1.92,7.37,4.42,10.46,7.5
			c3.08,3.08,5.48,6.9,7.2,11.44c1.21,3.13,1.97,6.44,2.27,9.93C605.44,364.55,605.29,367.99,604.69,371.37z"/>
		<path class="st1" d="M789.95,319.24c-1.36-2.47-3.18-4.55-5.46-6.21s-4.88-2.9-7.8-3.71c-2.93-0.81-5.91-1.21-8.94-1.21
			c-4.35,0-8.26,0.81-11.75,2.43c-3.49,1.62-6.62,3.79-9.4,6.52c-2.78,2.73-5.2,5.83-7.28,9.32c-2.07,3.49-3.86,7.05-5.38,10.68
			c-5.56-1.72-11.09-3.64-16.6-5.76c-5.51-2.12-10.94-4.24-16.29-6.37c-9.09-3.64-17.73-6.9-25.92-9.78
			c-8.18-2.88-15.56-4.32-22.13-4.32c-3.03,0-6.01,0.41-8.94,1.21c-2.93,0.81-5.68,1.97-8.26,3.49c-2.58,1.52-4.8,3.44-6.67,5.76
			c-1.87,2.33-3.26,5-4.17,8.03c-0.4,1.42-0.28,2.73,0.38,3.94c0.66,1.21,1.69,2.02,3.11,2.42c0.3,0.1,0.81,0.15,1.52,0.15
			c2.53,0,4.19-1.21,5-3.64c0.61-2.12,1.67-3.91,3.18-5.38c1.52-1.46,3.16-2.6,4.93-3.41c1.77-0.81,3.54-1.39,5.31-1.74
			c1.77-0.35,3.31-0.53,4.62-0.53c2.73,0,5.79,0.38,9.17,1.14c3.39,0.76,6.95,1.74,10.68,2.96c3.74,1.21,7.65,2.63,11.74,4.24
			c4.09,1.62,8.26,3.28,12.5,5c5.46,2.12,10.96,4.3,16.52,6.52c5.56,2.22,11.21,4.19,16.97,5.91c-0.3,1.01-0.61,2.05-0.91,3.11
			c-0.3,1.06-0.56,2.2-0.76,3.41c-0.51,2.33-1.24,3.89-2.2,4.7c-0.96,0.81-2.15,1.21-3.56,1.21c-1.01,0-2.05-0.13-3.11-0.38
			c-1.06-0.25-2.15-0.43-3.26-0.53c-1.01-0.2-2.02-0.3-3.03-0.3c-4.45,0-8.34,1.14-11.67,3.41c-3.33,2.27-6.16,5.15-8.49,8.64
			c-2.33,3.49-4.19,7.27-5.61,11.37c-1.42,4.09-2.48,7.96-3.18,11.59c-0.21,1.06-0.4,2.11-0.57,3.14c-0.04,0.09-0.08,0.19-0.11,0.27
			c-0.45,1.06-0.99,2.2-1.59,3.41c-0.61,1.21-1.31,2.33-2.12,3.33c-1.82,2.42-3.84,4.09-6.06,5c-0.81,0.2-1.42,0.3-1.82,0.3
			c-1.42,0-2.42-0.53-3.03-1.59c-0.61-1.06-0.61-2.75,0-5.08c0.4-1.72,0.71-3.46,0.91-5.23c0.2-1.77,0.4-3.51,0.61-5.23
			c0.71-8.28-0.15-15.2-2.58-20.76c-3.33-7.27-8.99-11.31-16.97-12.12c-0.3,0-0.61-0.02-0.91-0.08c-0.3-0.05-0.66-0.08-1.06-0.08
			c-4.65,0-8.67,1.09-12.05,3.26c-3.39,2.17-6.27,4.98-8.64,8.41c-2.37,3.44-4.29,7.23-5.76,11.37c-1.47,4.14-2.6,8.13-3.41,11.97
			c-1.41,7.48-1.72,14.15-0.91,20c0.81,5.86,2.68,10.61,5.61,14.25c3.64,4.45,8.43,6.67,14.4,6.67c4.65,0,8.87-1.09,12.65-3.26
			c3.79-2.17,6.95-5.18,9.47-9.02c0.91-1.11,2.02-1.84,3.33-2.2c1.31-0.35,2.83-0.53,4.55-0.53c4.24,0,8.01-0.78,11.29-2.35
			c1.2-0.57,2.35-1.28,3.45-2.12c0.73,5.96,2.53,10.59,5.41,13.86c1.82,2.12,3.81,3.59,5.99,4.4c2.17,0.81,4.62,1.21,7.35,1.21
			c4.85-0.3,9.09-1.82,12.73-4.55c2.02-1.41,3.64-2.12,4.85-2.12c0.81,0,1.49,0.2,2.05,0.61c0.55,0.4,1.14,0.86,1.74,1.36
			c1.52,1.42,3.13,2.58,4.85,3.49c1.72,0.91,3.74,1.46,6.06,1.67c5.05,0,9.4-1.29,13.03-3.86c3.64-2.58,6.77-5.81,9.4-9.7
			c2.63-3.89,4.8-8.11,6.52-12.65c1.72-4.55,3.18-8.84,4.39-12.88c0.4-1.41,0.28-2.73-0.38-3.94c-0.66-1.21-1.69-2.07-3.11-2.58
			c-0.3-0.1-0.76-0.15-1.36-0.15c-1.11,0-2.17,0.33-3.18,0.99c-1.01,0.66-1.67,1.54-1.97,2.65c-0.71,2.42-1.72,5.43-3.03,9.02
			c-1.31,3.59-2.91,7.07-4.77,10.46c-1.87,3.39-4.04,6.29-6.52,8.71c-2.48,2.43-5.28,3.64-8.41,3.64c-0.51,0-1.06-0.08-1.67-0.23
			s-1.19-0.58-1.74-1.29c-0.56-0.71-1.04-1.77-1.44-3.18c-0.4-1.41-0.61-3.43-0.61-6.06c0-1.01,0.28-3.41,0.83-7.2
			c0.55-3.79,1.29-8.41,2.2-13.87c0.91-5.46,1.92-11.42,3.03-17.88c1.11-6.46,2.22-12.93,3.33-19.4c0.2-1.01,0.43-1.99,0.68-2.96
			c0.25-0.96,0.53-1.89,0.83-2.8c3.84,0.91,7.65,1.62,11.44,2.12c3.79,0.51,7.45,0.76,10.99,0.76c5.96,0,10.71-0.91,14.25-2.73
			c3.54-1.82,6.21-3.74,8.03-5.76c2.02-2.12,3.64-4.57,4.85-7.35c1.21-2.78,1.82-5.63,1.82-8.56
			C792,324.67,791.32,321.72,789.95,319.24z M660.91,387.36c-0.1,0.71-0.35,1.52-0.76,2.43c-0.4,0.91-1.11,1.77-2.12,2.58
			c-1.72,1.92-2.91,4.37-3.56,7.35c-0.66,2.98-0.58,5.84,0.23,8.56c0.2,0.51,0.25,1.42,0.15,2.73c-0.1,1.31-0.45,2.37-1.06,3.18
			c-4.14,6.57-9.15,9.85-15,9.85c-2.73,0-4.85-1.01-6.36-3.03c-2.02-2.32-3.23-5.73-3.64-10.23c-0.4-4.49-0.05-9.62,1.06-15.38
			c0.51-2.73,1.24-5.63,2.2-8.71c0.96-3.08,2.25-5.96,3.87-8.64c1.61-2.68,3.61-4.87,5.99-6.59c2.37-1.72,5.23-2.58,8.56-2.58
			c2.22,0.2,4.04,0.86,5.46,1.97c1.41,1.11,2.5,2.55,3.26,4.32c0.76,1.77,1.26,3.71,1.52,5.83
			C660.93,383.12,661.01,385.24,660.91,387.36z M721.68,389.18c-0.4,2.63-0.99,5.91-1.74,9.85c-0.76,3.94-1.87,7.73-3.33,11.37
			c-1.47,3.64-3.39,6.77-5.76,9.4c-2.37,2.63-5.38,3.99-9.02,4.09c-1.01,0-1.92-0.1-2.73-0.3c-0.81-0.2-1.57-0.7-2.27-1.52
			c-1.42-1.72-2.45-4.77-3.11-9.17c-0.53-3.55-0.34-8.1,0.55-13.6c0.64-1.59,1.05-2.8,1.19-3.6c0.2-0.86,0.18-1.72-0.01-2.58
			c2.15-9.69,5.49-16.66,10.01-20.91c1.52-1.41,3.05-2.37,4.62-2.88c1.56-0.5,3.36-0.76,5.38-0.76c1.52,0.2,2.63,0.56,3.33,1.06
			c0.7,0.51,1.26,1.01,1.67,1.52C722.59,374.08,722.99,380.09,721.68,389.18z M780.71,332.65c-0.56,1.62-1.52,3.16-2.88,4.62
			c-1.36,1.47-3.26,2.7-5.68,3.71c-2.42,1.01-5.46,1.52-9.09,1.52c-2.93,0-6.01-0.2-9.24-0.61c-3.24-0.4-6.47-1.01-9.7-1.82
			c1.11-2.52,2.37-5.05,3.79-7.58c1.41-2.52,3.08-4.8,5-6.82c1.92-2.02,4.09-3.66,6.52-4.93c2.43-1.26,5.2-1.89,8.34-1.89
			c4.85,0,8.54,1.01,11.06,3.03c1.82,1.62,2.73,3.79,2.73,6.52C781.54,329.62,781.26,331.04,780.71,332.65z"/>
	</g>
</g>
</svg>
