<?xml version="1.0" encoding="utf-8"?>
<!-- Generator: Adobe Illustrator 28.2.0, SVG Export Plug-In . SVG Version: 6.00 Build 0)  -->
<svg version="1.1" id="Layer_1" xmlns="http://www.w3.org/2000/svg" xmlns:xlink="http://www.w3.org/1999/xlink" x="0px" y="0px"
	 viewBox="0 0 792 792" style="enable-background:new 0 0 792 792;" xml:space="preserve">
<style type="text/css">
	.st0{fill:#DCD9D4;}
	.st1{fill:#074261;}
</style>
<g>
	<g>
		<path class="st0" d="M511.66,700.9c0,13.39-5.34,26.3-14.8,35.77c-9.51,9.51-22.37,14.85-35.82,14.85
			c-13.44,0-26.3-5.34-35.82-14.85c-9.46-9.46-14.8-22.37-14.8-35.77c0-13.44,5.34-26.3,14.85-35.82
			c9.46-9.51,22.37-14.8,35.77-14.8c13.44,0,26.3,5.34,35.77,14.8C506.32,674.59,511.66,687.45,511.66,700.9z"/>
		<path class="st0" d="M330.49,700.9c0,13.39-5.34,26.3-14.8,35.77c-9.51,9.51-22.37,14.85-35.82,14.85
			c-13.39,0-26.3-5.34-35.77-14.8c-9.51-9.51-14.85-22.37-14.85-35.82c0-13.44,5.34-26.3,14.8-35.82
			c9.51-9.46,22.37-14.8,35.82-14.8c13.44,0,26.3,5.34,35.77,14.8C325.15,674.59,330.49,687.45,330.49,700.9z"/>
		<path class="st0" d="M320.05,177.78c0.1,2.62-0.82,5.19-2.62,7.13l-76.78,86.05c-1.94,2.18-4.71,3.4-7.62,3.4
			c-2.91,0-5.68-1.21-7.62-3.4l-76.73-86.05c-1.75-1.94-2.67-4.51-2.57-7.13c0.1-2.67,1.21-5.14,3.11-6.99
			c1.89-1.8,4.42-2.81,7.09-2.81h33.73V50.68c0-2.72,1.07-5.29,3.01-7.23c1.89-1.89,4.47-2.96,7.18-2.96h65.66
			c2.72,0,5.34,1.07,7.23,2.96c1.89,1.94,3.01,4.51,3.01,7.23v117.3h33.73c2.62,0,5.14,1.02,7.04,2.81
			C318.84,172.64,319.96,175.11,320.05,177.78z"/>
		<path class="st0" d="M601.39,177.78v0.39c0,2.48-0.92,4.9-2.62,6.75l-76.78,86.05c-1.89,2.18-4.71,3.4-7.57,3.4
			c-2.91,0-5.68-1.21-7.62-3.4l-76.78-86.05c-1.75-1.94-2.67-4.51-2.57-7.13c0.1-2.67,1.21-5.14,3.11-6.99
			c1.89-1.8,4.42-2.81,7.09-2.81h33.73V50.68c0-2.72,1.07-5.29,3.01-7.23c1.89-1.89,4.46-2.96,7.18-2.96h65.66
			c2.72,0,5.34,1.07,7.23,2.96c1.89,1.94,2.96,4.51,2.96,7.23v117.3h33.78c2.62,0,5.14,1.02,7.04,2.81
			C600.18,172.64,601.29,175.11,601.39,177.78z"/>
		<path class="st0" d="M750.67,466.1c-7.72,26.35-23.49,49.7-45.09,66.68c-21.6,17.03-47.95,26.89-75.42,28.2
			c-27.47,1.36-54.65-5.92-77.8-20.77c-3.88,8.15-10,15-17.67,19.8c-7.62,4.76-16.45,7.28-25.48,7.23h-290.7
			c-5.53,1.46-10.29,4.9-13.44,9.66c-3.11,4.8-4.32,10.58-3.45,16.21c0.29,5.92,2.91,11.45,7.33,15.43
			c4.42,3.93,10.24,5.97,16.11,5.63h292.3c3.54,0.1,6.79,2.04,8.59,5.14c1.75,3.15,1.75,6.94,0,10.05c-1.8,3.11-5.05,5.1-8.59,5.19
			h-292.3c-11.02,0.39-21.74-3.49-29.9-10.87c-8.15-7.38-13.15-17.62-13.83-28.63c-1.65-15,4.22-29.85,15.72-39.65l-64.74-244.6
			l-17.57-65.57H46.48c-2.72,0.1-5.39-0.92-7.38-2.86c-1.99-1.94-3.11-4.56-3.11-7.33c0-2.77,1.12-5.39,3.11-7.28
			c1.99-1.94,4.66-2.96,7.38-2.91h76.1c2.28,0,4.46,0.73,6.21,2.14c1.8,1.36,3.06,3.25,3.64,5.44L150,297.94h183.55v-80.76
			c0-2.72,1.07-5.34,2.96-7.23c1.94-1.94,4.51-3.01,7.23-3.01h65.66c2.72,0,5.29,1.07,7.18,3.01c1.94,1.89,3.01,4.51,3.01,7.23
			v80.76h139.82c7.86,0,15.63,1.84,22.62,5.48c13.44-4.47,27.57-6.75,41.74-6.75c27.47,0,54.31,8.54,76.68,24.46
			c22.42,15.97,39.26,38.49,48.29,64.45C757.71,411.55,758.39,439.7,750.67,466.1z"/>
	</g>
	<path class="st1" d="M279.86,650.27c-13.43,0-26.3,5.34-35.8,14.83c-9.49,9.5-14.82,22.37-14.82,35.8c0,13.43,5.34,26.3,14.83,35.8
		c9.5,9.49,22.38,14.82,35.8,14.82c13.43,0,26.3-5.34,35.8-14.83c9.49-9.5,14.82-22.37,14.82-35.8
		c-0.01-13.42-5.36-26.29-14.85-35.78C306.15,655.61,293.28,650.28,279.86,650.27L279.86,650.27z M279.86,731.11L279.86,731.11
		c-8.02,0-15.71-3.18-21.38-8.85c-5.67-5.67-8.86-13.36-8.86-21.38c0-8.02,3.18-15.71,8.85-21.38c5.67-5.67,13.36-8.86,21.38-8.86
		s15.71,3.18,21.38,8.85c5.67,5.67,8.85,13.36,8.85,21.38c-0.01,8.02-3.19,15.7-8.86,21.36
		C295.55,727.91,287.87,731.1,279.86,731.11L279.86,731.11z M461.04,650.27c-13.43,0-26.3,5.33-35.8,14.82
		c-9.5,9.49-14.83,22.37-14.83,35.8c0,13.43,5.33,26.3,14.83,35.8c9.5,9.49,22.37,14.83,35.8,14.83c13.43,0,26.3-5.34,35.8-14.83
		c9.49-9.5,14.82-22.38,14.82-35.8c-0.02-13.42-5.36-26.28-14.84-35.77C487.33,655.62,474.46,650.28,461.04,650.27L461.04,650.27z
		 M461.04,731.11L461.04,731.11c-8.02,0-15.71-3.18-21.38-8.85c-5.67-5.67-8.86-13.36-8.86-21.38c0-8.02,3.18-15.71,8.85-21.38
		c5.67-5.67,13.36-8.86,21.38-8.86c8.02,0,15.71,3.18,21.38,8.85c5.67,5.67,8.85,13.36,8.85,21.38c-0.01,8.02-3.19,15.7-8.86,21.36
		C476.74,727.91,469.06,731.1,461.04,731.11L461.04,731.11z M225.43,270.97c1.94,2.17,4.7,3.41,7.61,3.41c2.9,0,5.67-1.24,7.61-3.41
		l76.8-86.03c1.76-1.97,2.68-4.54,2.58-7.18c-0.1-2.64-1.22-5.13-3.12-6.96c-1.9-1.83-4.43-2.85-7.07-2.85H276.1V50.68
		c0-2.71-1.07-5.3-2.99-7.21c-1.91-1.91-4.51-2.99-7.21-2.99h-65.67h0c-2.71,0-5.3,1.07-7.21,2.99c-1.91,1.91-2.99,4.51-2.99,7.21
		v117.28h-33.74c-2.64,0-5.17,1.02-7.07,2.85c-1.9,1.83-3.02,4.32-3.12,6.96c-0.1,2.64,0.82,5.21,2.58,7.18L225.43,270.97z
		 M200.22,188.34c2.71,0,5.3-1.07,7.21-2.99c1.91-1.91,2.99-4.5,2.99-7.21V60.88h45.28v117.28c0,2.7,1.08,5.29,2.99,7.2
		c1.91,1.91,4.5,2.98,7.2,2.98h21.17l-54,60.53l-54.01-60.53L200.22,188.34z M506.79,270.97c1.94,2.17,4.7,3.41,7.61,3.41
		c2.9,0,5.67-1.24,7.61-3.41l76.78-86.03h0c1.76-1.97,2.68-4.54,2.58-7.18c-0.1-2.64-1.22-5.13-3.12-6.96
		c-1.9-1.83-4.43-2.85-7.07-2.85h-33.74V50.68c0-2.71-1.07-5.3-2.98-7.21c-1.91-1.91-4.51-2.99-7.21-2.99h-65.67
		c-2.71,0-5.3,1.07-7.22,2.99c-1.92,1.91-2.99,4.51-2.99,7.22v117.28h-33.74c-2.64,0-5.17,1.02-7.07,2.85
		c-1.9,1.83-3.02,4.32-3.12,6.96c-0.1,2.64,0.82,5.21,2.58,7.18L506.79,270.97z M481.56,188.34c2.7,0,5.3-1.07,7.21-2.99
		c1.91-1.91,2.99-4.5,2.99-7.21V60.88h45.28v117.28c0,2.7,1.08,5.29,2.99,7.2c1.91,1.91,4.5,2.98,7.2,2.98h21.17l-54.01,60.52
		l-54-60.52L481.56,188.34z M623.75,296.68c-14.19-0.01-28.28,2.27-41.74,6.76c-6.98-3.63-14.74-5.51-22.61-5.48H419.58v-80.79
		c0-2.71-1.07-5.3-2.99-7.21c-1.91-1.91-4.5-2.99-7.21-2.99h-65.67h0c-2.71,0-5.3,1.08-7.21,2.99c-1.91,1.91-2.99,4.51-2.99,7.21
		v80.8H150.01l-17.57-65.54v0c-0.58-2.17-1.86-4.09-3.64-5.45c-1.78-1.37-3.96-2.11-6.21-2.11h-76.1c-2.76-0.08-5.42,0.96-7.4,2.88
		c-1.97,1.92-3.09,4.56-3.09,7.32c0,2.76,1.12,5.4,3.09,7.32c1.98,1.92,4.65,2.96,7.4,2.88h68.26l17.56,65.54l64.76,244.6
		c-11.5,9.8-17.4,24.66-15.75,39.68c0.72,10.98,5.69,21.25,13.86,28.62c8.17,7.37,18.89,11.27,29.88,10.86h292.29
		c3.58-0.1,6.84-2.07,8.59-5.18c1.76-3.11,1.76-6.92,0-10.03c-1.76-3.11-5.02-5.08-8.59-5.18H225.08
		c-5.91,0.35-11.72-1.67-16.12-5.62c-4.41-3.95-7.05-9.51-7.34-15.42c-0.89-5.64,0.35-11.41,3.47-16.19
		c3.12-4.78,7.9-8.23,13.43-9.68h290.69c9.02,0.05,17.86-2.47,25.5-7.25c7.64-4.78,13.77-11.64,17.67-19.76
		c23.14,14.84,50.33,22.1,77.79,20.77c27.46-1.33,53.82-11.19,75.41-28.2c21.6-17.01,37.36-40.32,45.09-66.71
		c7.73-26.38,7.05-54.51-1.96-80.49c-9-25.98-25.87-48.5-48.27-64.44c-22.4-15.94-49.2-24.5-76.69-24.5L623.75,296.68z
		 M353.91,227.36h45.28v117.28c0,2.7,1.08,5.3,2.99,7.21c1.91,1.91,4.51,2.98,7.21,2.98h21.17l-54.01,60.52l-54-60.52h21.16
		c2.71,0,5.3-1.07,7.21-2.98c1.91-1.91,2.99-4.51,2.99-7.21L353.91,227.36z M509.22,546.86h-293.3l-60.48-228.49h178.11l0,16.07
		h-33.79c-2.64,0-5.17,1.02-7.07,2.85c-1.9,1.83-3.02,4.32-3.12,6.96c-0.1,2.64,0.82,5.21,2.58,7.17l76.78,86.03
		c1.94,2.17,4.7,3.41,7.61,3.41c2.9,0,5.67-1.24,7.61-3.41l76.78-86.02c1.76-1.97,2.68-4.54,2.58-7.18
		c-0.1-2.64-1.22-5.13-3.12-6.96c-1.9-1.83-4.43-2.85-7.07-2.85h-33.74v-16.08h131.71c-22.68,14.85-40.24,36.32-50.31,61.49
		c-10.06,25.17-12.15,52.83-5.96,79.22c6.18,26.39,20.34,50.25,40.54,68.32c-1.66,5.68-5.13,10.66-9.89,14.17
		C520.92,545.09,515.13,546.94,509.22,546.86L509.22,546.86z M623.75,540.8c-22.12,0-43.75-6.56-62.15-18.85
		c-18.4-12.29-32.73-29.76-41.2-50.2c-8.47-20.44-10.68-42.93-6.37-64.63c4.32-21.7,14.97-41.63,30.62-57.27
		c15.64-15.64,35.58-26.3,57.28-30.61c21.7-4.31,44.19-2.1,64.63,6.37c20.44,8.47,37.91,22.81,50.2,41.2
		c12.29,18.4,18.85,40.02,18.85,62.15c-0.04,29.65-11.83,58.09-32.8,79.06C681.84,528.97,653.41,540.76,623.75,540.8L623.75,540.8z
		 M659.04,433.88L659.04,433.88c3.65,4.17,6.09,9.26,7.07,14.72c0.98,5.46,0.45,11.08-1.52,16.26c-2.59,5.99-6.75,11.17-12.02,15.01
		c-5.27,3.85-11.48,6.21-17.97,6.85v7.94v0c0,3.64-1.94,7.01-5.1,8.83c-3.15,1.82-7.04,1.82-10.19,0c-3.15-1.82-5.1-5.19-5.1-8.83
		v-8.53c-7.96-1.41-15.33-5.11-21.21-10.65c-5.88-5.54-10.02-12.68-11.9-20.54c-0.61-2.64-0.14-5.4,1.29-7.7
		c1.43-2.29,3.72-3.92,6.36-4.53c2.64-0.61,5.4-0.14,7.7,1.29c2.29,1.43,3.92,3.72,4.53,6.36c3.56,15.48,20.73,17.49,30.32,16.25
		c6.06-0.3,11.51-3.79,14.31-9.18c0.65-1.78,0.79-3.71,0.4-5.56c-0.39-1.85-1.3-3.56-2.62-4.92c-4.7-5.13-11.36-8.01-18.32-7.9
		c-5.52-0.66-10.96-1.9-16.22-3.7l-0.32-0.12v0c-6.53-2.1-12.25-6.18-16.36-11.68c-4.1-5.5-6.4-12.14-6.56-19
		c0.3-6.9,2.7-13.54,6.86-19.05c4.16-5.51,9.91-9.62,16.46-11.79c1.73-0.64,3.49-1.19,5.28-1.64v-8.8c0-3.64,1.94-7.01,5.1-8.83
		s7.04-1.82,10.19,0c3.15,1.82,5.1,5.19,5.1,8.83v8.55c14.42,3.61,26.03,14.26,30.89,28.31c1.17,3.38,0.49,7.12-1.8,9.87
		c-2.29,2.75-5.85,4.1-9.39,3.55c-3.53-0.54-6.53-2.9-7.89-6.21c-1.81-6.16-6.15-11.27-11.94-14.04
		c-5.79-2.78-12.49-2.96-18.43-0.52c-2.67,0.79-5.05,2.36-6.83,4.49c-1.78,2.14-2.89,4.76-3.19,7.53
		c-0.07,4.68,3.49,8.72,10.02,11.41l0,0c3.92,1.28,7.97,2.16,12.07,2.63c11.93,0.62,23.1,6.05,30.96,15.05L659.04,433.88z"/>
</g>
</svg>
