<?xml version="1.0" encoding="utf-8"?>
<!-- Generator: Adobe Illustrator 28.2.0, SVG Export Plug-In . SVG Version: 6.00 Build 0)  -->
<svg version="1.1" id="Layer_1" xmlns="http://www.w3.org/2000/svg" xmlns:xlink="http://www.w3.org/1999/xlink" x="0px" y="0px"
	 viewBox="0 80 792 620" style="enable-background:new 0 0 792 792;" xml:space="preserve">
<style type="text/css">
	.st0{fill:#DCD9D4;}
	.st1{fill:none;}
	.st2{fill:#074261;}
	.st3{fill:#A7A9AC;}
	.st4{fill:#BCBEC0;}
	.st5{fill:#D1D3D4;}
</style>
<g>
	<g>
		<g>
			<g>
				<path class="st0" d="M186.5,183.64c0,0-9.8,5.48-15.46,20.78s-10.67,42.69-10.67,42.69l-5.92,42.45l-2.33,36.25
					c0,0,0.43,30.5,0.47,36.59c0.03,6.08,1.87,37.09,1.87,37.09s1.75,25.67,5.5,36.67c3.75,11,7.69,12.34,10.33,13.17l5.34,15.25
					c0,0,10.13,1.42,18.2-0.33c8.06-1.75,14.21-5.58,14.21-5.58l0.55,5.75c0,0,12.44,2.36,32.12,4.33s57,2.08,57,2.08
					s36.94-1.66,56.85-4.58l10.57-1.42l1.33-5.83c0,0,4.59,3.67,15.21,5.42s16.95,0.08,16.95,0.08l5.25-15.25
					c0,0,7.08-1.68,10.17-12.54c3.08-10.86,4.83-24.47,6.17-45.3c1.33-20.83,1.75-60.42,1.75-60.42s-1.33-30.23-2.42-43.42
					c-1.09-13.19-7.5-48.42-7.5-48.42s-6.88-29.85-10.53-38s-7.64-14.41-21.89-22.96c-14.25-8.55-26.8-17.63-37.75-16.87h-9.45
					l-4.52,0.78c0,0-19.43,5.18-42.04,4.58c-22.61-0.6-32.43-2.28-44.01-5.41h-11.83c0,0-6.04-0.1-10.49,2.74
					S186.5,183.64,186.5,183.64z"/>
			</g>
			<g>
				<g>
					<path class="st1" d="M398.34,450.44c-0.19,0.01-1.25,0.05-2.89,0.05c-6.05,0-19.93-0.61-26.99-5.8l-1.75,13.72
						c13.3,8.36,29.06,6,31.46,5.58l5.04-14.16c-1.29,0.27-2.64,0.4-4.02,0.53L398.34,450.44z"/>
				</g>
				<g>
					<path class="st1" d="M287.02,177.84c0.01,0,0.02,0.01,0.03,0.01c0.01,0,0.02-0.01,0.03-0.01c25.46,0,38.93-11.56,42.82-15.55
						c-16.14,3.81-31.03,5.18-43.77,5.18c-21.28,0-36.53-3.57-41.73-4.98C248.55,166.66,261.99,177.84,287.02,177.84z"/>
				</g>
				<g>
					<path class="st1" d="M365.33,439.39c-0.36,0.07-36.13,7.33-78.24,7.33c-0.01,0-0.02-0.01-0.03-0.01
						c-0.01,0-0.02,0.01-0.03,0.01c-42.11,0-77.88-7.25-78.24-7.33c-0.65-0.14-1.64-0.5-2.8-1.1l3.31,25.94
						c4.06,0.69,37.32,6.08,77.73,6.08c0.01,0,0.02,0.01,0.03,0.01c0.01,0,0.02-0.01,0.03-0.01c40.41,0,73.67-5.4,77.73-6.08
						l3.3-25.93C366.96,438.9,365.98,439.25,365.33,439.39z"/>
				</g>
				<g>
					<path class="st1" d="M198.96,260.14c0.19-9.17,0.3-16.91,0.3-22.43c0-0.32,0.26-0.57,0.57-0.57s0.57,0.26,0.57,0.57
						c0,9.88-0.35,26.83-0.9,46.41c0.05,0.37,0.09,0.74,0.14,1.11c0.02,0.13-0.07,0.23-0.18,0.28
						c-1.35,47.4-3.85,109.37-5.44,123.84c-2.27,20.7,11.47,28.19,14.99,28.94c0.35,0.07,36.02,7.3,78,7.3
						c0.01,0,0.02,0.01,0.03,0.01c0.01,0,0.02-0.01,0.03-0.01c41.99,0,77.65-7.23,78-7.3c3.52-0.75,17.25-8.24,14.99-28.94
						c-2.26-20.62-6.38-137.74-6.38-171.63c0-0.32,0.26-0.57,0.57-0.57s0.57,0.26,0.57,0.57c0,5.52,0.11,13.27,0.3,22.44
						c5.14-31.38,21.21-61.2,23.06-64.56c-2.84-4.5-6.49-8.45-10.78-11.51c-13.81-9.87-27.31-16.79-34.12-20.04
						c-3.01-1.43-6.22-2.16-9.55-2.16h-7.54c-0.08,0.17-0.23,0.46-0.47,0.87c-0.05,0.09-0.15,0.14-0.24,0.14
						c-0.05,0-0.1-0.01-0.14-0.04c-0.13-0.08-0.18-0.25-0.1-0.39c0.14-0.24,0.24-0.43,0.33-0.58h-3.74
						c-1.72,2.03-15.5,17.11-44.75,17.11c-0.01,0-0.02-0.01-0.03-0.01c-0.01,0-0.02,0.01-0.03,0.01
						c-29.26,0-43.04-15.09-44.75-17.11h-3.22c0.05,0.1,0.1,0.2,0.17,0.32c0.07,0.14,0.02,0.31-0.11,0.38
						c-0.04,0.02-0.09,0.03-0.13,0.03c-0.1,0-0.2-0.05-0.25-0.15c-0.13-0.24-0.22-0.42-0.3-0.59h-8.06c-3.33,0-6.54,0.73-9.55,2.16
						c-6.82,3.25-20.32,10.17-34.12,20.04c-4.29,3.07-7.94,7.01-10.78,11.51C177.75,198.94,193.82,228.75,198.96,260.14z
						 M332.5,166.2c0.51-0.59,1-1.19,1.44-1.79c0.09-0.12,0.27-0.15,0.39-0.06c0.13,0.09,0.15,0.27,0.06,0.39
						c-0.45,0.61-0.95,1.22-1.47,1.82c-0.06,0.06-0.13,0.1-0.21,0.1c-0.07,0-0.13-0.02-0.19-0.07
						C332.41,166.49,332.39,166.32,332.5,166.2z M329.24,169.44c0.58-0.51,1.15-1.03,1.69-1.57c0.11-0.11,0.29-0.11,0.4,0
						c0.11,0.11,0.11,0.29,0,0.4c-0.55,0.54-1.12,1.08-1.71,1.59c-0.05,0.05-0.12,0.07-0.19,0.07c-0.08,0-0.16-0.03-0.21-0.1
						C329.11,169.72,329.12,169.54,329.24,169.44z M325.59,172.25c0.64-0.44,1.27-0.9,1.86-1.35c0.12-0.09,0.3-0.07,0.4,0.05
						c0.09,0.12,0.07,0.3-0.05,0.4c-0.6,0.46-1.24,0.93-1.89,1.37c-0.05,0.03-0.1,0.05-0.16,0.05c-0.09,0-0.18-0.04-0.23-0.12
						C325.43,172.51,325.46,172.34,325.59,172.25z M321.66,174.65c0.67-0.36,1.34-0.75,2-1.15c0.13-0.08,0.31-0.04,0.39,0.09
						c0.08,0.13,0.04,0.31-0.09,0.39c-0.66,0.4-1.34,0.8-2.02,1.16c-0.04,0.02-0.09,0.03-0.13,0.03c-0.1,0-0.2-0.05-0.25-0.15
						C321.47,174.9,321.52,174.72,321.66,174.65z M317.51,176.66c0.7-0.3,1.41-0.62,2.1-0.96c0.14-0.07,0.31-0.01,0.38,0.13
						c0.07,0.14,0.01,0.31-0.13,0.38c-0.7,0.34-1.41,0.66-2.12,0.97c-0.04,0.02-0.07,0.02-0.11,0.02c-0.11,0-0.21-0.06-0.26-0.17
						C317.3,176.89,317.37,176.72,317.51,176.66z M313.21,178.3c0.75-0.25,1.47-0.51,2.17-0.78c0.15-0.06,0.31,0.02,0.36,0.16
						c0.06,0.15-0.02,0.31-0.16,0.36c-0.71,0.27-1.44,0.53-2.19,0.79c-0.03,0.01-0.06,0.01-0.09,0.01c-0.12,0-0.23-0.07-0.27-0.19
						C312.98,178.51,313.06,178.35,313.21,178.3z M308.78,179.62c0.76-0.2,1.5-0.4,2.22-0.62c0.15-0.04,0.31,0.04,0.35,0.19
						c0.04,0.15-0.04,0.31-0.19,0.35c-0.73,0.22-1.47,0.42-2.24,0.62c-0.02,0.01-0.05,0.01-0.07,0.01c-0.13,0-0.24-0.08-0.27-0.21
						C308.54,179.81,308.63,179.65,308.78,179.62z M304.28,180.62c0.77-0.15,1.52-0.3,2.26-0.47c0.16-0.03,0.3,0.06,0.34,0.21
						c0.03,0.15-0.06,0.3-0.21,0.34c-0.74,0.17-1.5,0.32-2.28,0.47c-0.02,0-0.04,0-0.05,0c-0.13,0-0.25-0.09-0.28-0.23
						C304.02,180.8,304.12,180.65,304.28,180.62z M299.72,181.35c0.78-0.1,1.54-0.21,2.29-0.33c0.17-0.02,0.3,0.08,0.32,0.23
						c0.02,0.15-0.08,0.3-0.23,0.32c-0.75,0.12-1.52,0.23-2.3,0.34c-0.01,0-0.03,0-0.04,0c-0.14,0-0.26-0.1-0.28-0.24
						C299.45,181.52,299.56,181.38,299.72,181.35z M295.12,181.84c0.78-0.06,1.55-0.13,2.3-0.21c0.17-0.02,0.29,0.1,0.31,0.25
						c0.02,0.15-0.1,0.29-0.25,0.31c-0.76,0.08-1.53,0.15-2.32,0.21c-0.01,0-0.02,0-0.02,0c-0.15,0-0.27-0.11-0.28-0.26
						C294.85,181.99,294.96,181.85,295.12,181.84z M290.51,182.1c0.78-0.03,1.55-0.06,2.31-0.1c0.01,0,0.01,0,0.02,0
						c0.15,0,0.27,0.12,0.28,0.27c0.01,0.16-0.11,0.29-0.27,0.3c-0.76,0.04-1.54,0.08-2.32,0.1c0,0-0.01,0-0.01,0
						c-0.15,0-0.28-0.12-0.28-0.27C290.23,182.23,290.35,182.1,290.51,182.1z M285.88,182.15
						C285.88,182.15,285.88,182.15,285.88,182.15c0.77,0.01,1.55,0,2.32,0c0,0,0,0,0,0c0.15,0,0.28,0.12,0.28,0.28
						c0,0.16-0.12,0.28-0.28,0.29c-0.45,0.01-0.91,0.01-1.36,0.01c-0.32,0-0.64,0-0.96,0c-0.16,0-0.28-0.13-0.28-0.28
						C285.6,182.28,285.72,182.15,285.88,182.15z M281.26,182.01c0.76,0.04,1.53,0.07,2.31,0.1c0.16,0,0.28,0.13,0.27,0.29
						c0,0.15-0.13,0.27-0.28,0.27c0,0-0.01,0-0.01,0c-0.79-0.02-1.56-0.06-2.32-0.1c-0.16-0.01-0.28-0.14-0.27-0.3
						C280.97,182.12,281.12,182.01,281.26,182.01z M276.65,181.66c0.75,0.08,1.52,0.15,2.3,0.21c0.16,0.01,0.27,0.15,0.26,0.3
						c-0.01,0.15-0.13,0.26-0.28,0.26c-0.01,0-0.01,0-0.02,0c-0.79-0.06-1.56-0.13-2.32-0.21c-0.15-0.02-0.27-0.15-0.25-0.31
						C276.36,181.75,276.49,181.64,276.65,181.66z M272.07,181.06c0.75,0.12,1.51,0.23,2.28,0.33c0.15,0.02,0.26,0.16,0.24,0.32
						c-0.02,0.14-0.14,0.25-0.28,0.25c-0.01,0-0.02,0-0.04,0c-0.78-0.1-1.55-0.21-2.3-0.33c-0.15-0.02-0.26-0.17-0.23-0.32
						C271.77,181.14,271.9,181.04,272.07,181.06z M267.53,180.2c0.74,0.16,1.49,0.32,2.26,0.47c0.15,0.03,0.25,0.18,0.22,0.33
						c-0.03,0.14-0.14,0.23-0.28,0.23c-0.02,0-0.03,0-0.05-0.01c-0.78-0.15-1.54-0.31-2.28-0.47c-0.15-0.03-0.25-0.18-0.21-0.34
						C267.23,180.26,267.38,180.16,267.53,180.2z M263.07,179.04c0.72,0.22,1.46,0.42,2.22,0.62c0.15,0.04,0.24,0.19,0.2,0.34
						c-0.03,0.13-0.15,0.21-0.27,0.21c-0.02,0-0.05,0-0.07-0.01c-0.77-0.2-1.51-0.41-2.24-0.63c-0.15-0.04-0.23-0.2-0.19-0.35
						C262.76,179.08,262.91,178.99,263.07,179.04z M258.7,177.55c0.7,0.27,1.43,0.54,2.17,0.79c0.15,0.05,0.23,0.21,0.18,0.36
						c-0.04,0.12-0.15,0.19-0.27,0.19c-0.03,0-0.06-0.01-0.09-0.02c-0.74-0.25-1.48-0.52-2.19-0.8c-0.15-0.06-0.22-0.22-0.16-0.36
						C258.4,177.56,258.56,177.49,258.7,177.55z M254.11,175.82c0.07-0.14,0.24-0.2,0.38-0.13c0.67,0.33,1.38,0.66,2.09,0.98
						c0.14,0.06,0.21,0.23,0.15,0.37c-0.05,0.11-0.15,0.17-0.26,0.17c-0.04,0-0.08-0.01-0.11-0.02c-0.72-0.32-1.43-0.65-2.11-0.99
						C254.1,176.13,254.04,175.96,254.11,175.82z M250.08,173.53c0.08-0.13,0.26-0.17,0.39-0.09c0.63,0.4,1.3,0.79,1.98,1.17
						c0.14,0.08,0.18,0.25,0.11,0.38c-0.05,0.09-0.15,0.14-0.25,0.14c-0.05,0-0.09-0.01-0.14-0.04c-0.69-0.39-1.36-0.79-2.01-1.19
						C250.03,173.84,249.99,173.67,250.08,173.53z M246.32,170.82c0.1-0.12,0.27-0.14,0.4-0.04c0.59,0.47,1.2,0.94,1.84,1.39
						c0.13,0.09,0.16,0.27,0.07,0.39c-0.05,0.08-0.14,0.12-0.23,0.12c-0.06,0-0.11-0.02-0.16-0.05c-0.64-0.46-1.27-0.93-1.86-1.41
						C246.24,171.12,246.22,170.94,246.32,170.82z M242.93,167.67c0.11-0.11,0.29-0.1,0.4,0.01c0.52,0.55,1.08,1.09,1.64,1.61
						c0.11,0.1,0.12,0.28,0.02,0.4c-0.06,0.06-0.13,0.09-0.21,0.09c-0.07,0-0.14-0.02-0.19-0.07c-0.58-0.53-1.14-1.08-1.67-1.63
						C242.81,167.95,242.81,167.77,242.93,167.67z M240.02,164.05c0.13-0.09,0.3-0.06,0.39,0.07c0.42,0.61,0.89,1.23,1.39,1.83
						c0.1,0.12,0.08,0.3-0.04,0.4c-0.05,0.04-0.12,0.06-0.18,0.06c-0.08,0-0.16-0.04-0.22-0.1c-0.5-0.61-0.98-1.24-1.41-1.87
						C239.86,164.32,239.89,164.14,240.02,164.05z"/>
				</g>
				<g>
					<path class="st1" d="M175.88,449.3c0.18,0.01,21.25,0.86,29.6-5.91l-0.24-1.89c-0.02,0.01-0.02,0.03-0.04,0.04
						c-0.73,0.26-1.46,0.51-2.17,0.74c-0.03,0.01-0.06,0.01-0.09,0.01c-0.12,0-0.23-0.07-0.27-0.19c-0.05-0.15,0.03-0.31,0.18-0.36
						c0.71-0.23,1.43-0.48,2.16-0.74c0.06-0.02,0.11-0.01,0.17,0.01l-0.44-3.43c-5.57-3.42-13.66-11.88-11.85-28.38
						c1.64-14.96,4.26-80.76,5.57-128.65c-0.09-0.6-0.17-1.2-0.26-1.8c-0.02-0.15,0.08-0.3,0.24-0.32c0.03-0.01,0.05,0.02,0.08,0.02
						c0.1-3.81,0.2-7.5,0.28-11.03c-3.41-32.32-20.49-65.01-23.59-70.73c-0.72,1.22-1.36,2.49-1.95,3.78
						c0.02,0.02,0.04,0.02,0.05,0.04c0,0,0.41,0.69,1.12,2.02c0.07,0.14,0.02,0.31-0.12,0.38c-0.04,0.02-0.09,0.03-0.13,0.03
						c-0.1,0-0.2-0.05-0.25-0.15c-0.46-0.86-0.78-1.42-0.95-1.72c-0.64,1.45-1.23,2.92-1.7,4.44
						c-5.87,18.91-14.57,53.76-17.57,101.35c0,0.01,0.01,0.02,0.01,0.04c0.01,0.21,0.65,21.05,4.92,36.61c0.08,0.3-0.1,0.62-0.4,0.7
						c-0.05,0.01-0.1,0.02-0.15,0.02c-0.25,0-0.48-0.17-0.55-0.42c-2.45-8.92-3.71-19.55-4.35-27.1
						c-0.56,12.67-0.72,26.16-0.3,40.44c1.59,54.93,5.25,76.7,10.43,85.56c0.34,0.16,0.85,0.39,1.51,0.64
						c0.15,0.06,0.22,0.22,0.16,0.36c-0.04,0.11-0.15,0.18-0.26,0.18c-0.03,0-0.07-0.01-0.1-0.02c-0.3-0.11-0.54-0.21-0.78-0.31
						c3.21,4.87,6.98,5.24,11.18,5.64L175.88,449.3z M198.48,443.06c0.72-0.2,1.45-0.41,2.19-0.63c0.15-0.04,0.31,0.04,0.35,0.19
						c0.05,0.15-0.04,0.31-0.19,0.35c-0.75,0.23-1.48,0.44-2.21,0.64c-0.03,0.01-0.05,0.01-0.07,0.01c-0.12,0-0.24-0.08-0.27-0.21
						C198.24,443.26,198.33,443.1,198.48,443.06z M194.05,444.15c0.73-0.16,1.47-0.33,2.22-0.51c0.15-0.04,0.3,0.06,0.34,0.21
						c0.04,0.15-0.06,0.3-0.21,0.34c-0.76,0.19-1.5,0.36-2.24,0.52c-0.02,0-0.04,0.01-0.06,0.01c-0.13,0-0.25-0.09-0.27-0.22
						C193.8,444.34,193.89,444.19,194.05,444.15z M198.03,274.15c0.13,0.75,0.25,1.51,0.37,2.26c0.02,0.15-0.08,0.3-0.23,0.32
						c-0.01,0-0.03,0-0.04,0c-0.14,0-0.26-0.1-0.28-0.24c-0.12-0.76-0.24-1.51-0.37-2.26c-0.03-0.15,0.08-0.3,0.23-0.32
						C197.86,273.89,198.01,273.99,198.03,274.15z M197.23,269.63c0.14,0.75,0.28,1.5,0.41,2.26c0.03,0.15-0.07,0.3-0.23,0.33
						c-0.02,0-0.03,0-0.05,0c-0.13,0-0.25-0.1-0.28-0.23c-0.14-0.76-0.27-1.51-0.41-2.25c-0.03-0.15,0.07-0.3,0.23-0.33
						C197.05,269.38,197.2,269.48,197.23,269.63z M196.34,265.13c0.15,0.74,0.3,1.49,0.45,2.25c0.03,0.15-0.07,0.3-0.22,0.33
						c-0.02,0-0.04,0.01-0.05,0.01c-0.13,0-0.25-0.09-0.28-0.23c-0.15-0.75-0.3-1.5-0.45-2.24c-0.03-0.15,0.07-0.3,0.22-0.33
						C196.16,264.89,196.31,264.98,196.34,265.13z M195.04,260.44c0.15-0.03,0.3,0.06,0.34,0.21c0.17,0.74,0.33,1.49,0.49,2.24
						c0.03,0.15-0.06,0.3-0.21,0.33c-0.02,0-0.04,0.01-0.06,0.01c-0.13,0-0.25-0.09-0.28-0.22c-0.16-0.75-0.33-1.5-0.49-2.23
						C194.79,260.62,194.88,260.47,195.04,260.44z M193.98,255.98c0.15-0.04,0.3,0.06,0.34,0.21c0.18,0.74,0.36,1.48,0.53,2.23
						c0.04,0.15-0.06,0.3-0.21,0.34c-0.02,0.01-0.04,0.01-0.07,0.01c-0.13,0-0.24-0.09-0.27-0.22c-0.18-0.75-0.35-1.49-0.53-2.23
						C193.74,256.17,193.83,256.02,193.98,255.98z M192.85,251.54c0.15-0.04,0.31,0.05,0.34,0.2c0.19,0.73,0.38,1.47,0.57,2.22
						c0.04,0.15-0.05,0.3-0.2,0.34c-0.02,0.01-0.05,0.01-0.07,0.01c-0.13,0-0.24-0.08-0.27-0.21c-0.19-0.74-0.38-1.48-0.57-2.21
						C192.61,251.73,192.7,251.58,192.85,251.54z M191.91,445.16c-0.77,0.14-1.52,0.27-2.27,0.39c-0.01,0-0.03,0-0.04,0
						c-0.14,0-0.26-0.1-0.28-0.24c-0.02-0.15,0.08-0.3,0.24-0.32c0.74-0.11,1.48-0.24,2.25-0.38c0.15-0.03,0.3,0.07,0.33,0.22
						C192.17,444.98,192.07,445.13,191.91,445.16z M191.64,247.12c0.14-0.04,0.31,0.04,0.35,0.19c0.21,0.73,0.41,1.47,0.61,2.21
						c0.04,0.15-0.05,0.3-0.2,0.35c-0.03,0.01-0.05,0.01-0.07,0.01c-0.12,0-0.24-0.08-0.27-0.21c-0.2-0.74-0.41-1.48-0.61-2.2
						C191.41,247.32,191.49,247.16,191.64,247.12z M190.35,242.72c0.16-0.04,0.31,0.04,0.35,0.19c0.22,0.72,0.44,1.46,0.65,2.2
						c0.04,0.15-0.04,0.31-0.19,0.35c-0.03,0.01-0.05,0.01-0.08,0.01c-0.12,0-0.24-0.08-0.27-0.2c-0.22-0.74-0.43-1.47-0.65-2.19
						C190.12,242.93,190.2,242.77,190.35,242.72z M188.98,238.35c0.14-0.04,0.31,0.03,0.35,0.18c0.23,0.72,0.46,1.45,0.69,2.19
						c0.05,0.15-0.04,0.31-0.19,0.35c-0.03,0.01-0.06,0.01-0.08,0.01c-0.12,0-0.23-0.08-0.27-0.2c-0.23-0.74-0.46-1.46-0.69-2.18
						C188.75,238.56,188.84,238.4,188.98,238.35z M187.54,234c0.14-0.05,0.31,0.03,0.36,0.18c0.24,0.72,0.49,1.44,0.73,2.17
						c0.05,0.15-0.03,0.31-0.18,0.36c-0.03,0.01-0.06,0.01-0.09,0.01c-0.12,0-0.23-0.07-0.27-0.19c-0.24-0.73-0.49-1.46-0.73-2.17
						C187.31,234.21,187.39,234.05,187.54,234z M187.62,445.55c0.02,0.15-0.09,0.3-0.25,0.31c-0.78,0.1-1.54,0.17-2.29,0.24
						c-0.01,0-0.02,0-0.02,0c-0.14,0-0.27-0.11-0.28-0.26c-0.01-0.16,0.1-0.29,0.26-0.31c0.74-0.06,1.49-0.14,2.27-0.24
						C187.46,445.28,187.6,445.39,187.62,445.55z M186.01,229.68c0.15-0.05,0.31,0.02,0.36,0.17c0.26,0.71,0.51,1.43,0.77,2.16
						c0.05,0.15-0.03,0.31-0.17,0.36c-0.03,0.01-0.06,0.02-0.09,0.02c-0.12,0-0.22-0.07-0.27-0.19c-0.26-0.73-0.51-1.45-0.77-2.16
						C185.79,229.9,185.87,229.74,186.01,229.68z M184.41,225.39c0.15-0.06,0.31,0.02,0.36,0.16c0.27,0.7,0.54,1.42,0.81,2.15
						c0.05,0.15-0.02,0.31-0.17,0.36c-0.03,0.01-0.07,0.02-0.1,0.02c-0.11,0-0.22-0.07-0.26-0.18c-0.27-0.73-0.54-1.44-0.81-2.14
						C184.19,225.61,184.27,225.45,184.41,225.39z M182.73,221.13c0.14-0.06,0.31,0.01,0.37,0.16c0.28,0.69,0.56,1.41,0.85,2.13
						c0.06,0.14-0.01,0.31-0.16,0.37c-0.03,0.01-0.07,0.02-0.1,0.02c-0.11,0-0.22-0.07-0.26-0.18c-0.29-0.72-0.57-1.43-0.85-2.13
						C182.51,221.35,182.58,221.19,182.73,221.13z M180.96,216.9c0.14-0.06,0.31,0.01,0.37,0.15c0.29,0.68,0.59,1.39,0.89,2.11
						c0.06,0.14-0.01,0.31-0.15,0.37c-0.04,0.02-0.07,0.02-0.11,0.02c-0.11,0-0.21-0.07-0.26-0.17c-0.3-0.72-0.6-1.43-0.89-2.11
						C180.75,217.13,180.82,216.96,180.96,216.9z M182.76,445.7c0.15-0.01,0.29,0.11,0.3,0.27c0.01,0.16-0.11,0.29-0.27,0.3
						c-0.79,0.04-1.56,0.06-2.3,0.07c0,0,0,0,0,0c-0.15,0-0.28-0.12-0.28-0.28c0-0.16,0.12-0.28,0.28-0.29
						C181.22,445.76,181.98,445.74,182.76,445.7z M179.11,212.71c0.14-0.07,0.31,0,0.37,0.14c0.3,0.67,0.62,1.37,0.94,2.1
						c0.06,0.14,0,0.31-0.14,0.37c-0.04,0.02-0.08,0.02-0.11,0.02c-0.11,0-0.21-0.06-0.26-0.17c-0.32-0.72-0.63-1.42-0.93-2.09
						C178.91,212.94,178.97,212.77,179.11,212.71z M169.12,445.21c-0.02,0-0.04,0-0.06-0.01c-0.77-0.17-1.52-0.37-2.23-0.58
						c-0.15-0.04-0.24-0.2-0.19-0.35c0.05-0.15,0.2-0.23,0.35-0.19c0.71,0.21,1.45,0.4,2.2,0.57c0.15,0.03,0.25,0.19,0.21,0.34
						C169.36,445.13,169.24,445.21,169.12,445.21z M173.63,445.98c-0.01,0-0.02,0-0.03,0c-0.77-0.09-1.54-0.2-2.28-0.33
						c-0.15-0.03-0.26-0.17-0.23-0.33c0.03-0.15,0.17-0.26,0.32-0.23c0.73,0.12,1.49,0.23,2.25,0.32c0.15,0.02,0.27,0.16,0.25,0.31
						C173.89,445.88,173.77,445.98,173.63,445.98z M178.2,446.31C178.19,446.31,178.19,446.31,178.2,446.31
						c-0.78-0.02-1.56-0.06-2.31-0.11c-0.16-0.01-0.27-0.15-0.26-0.3c0.01-0.15,0.16-0.27,0.3-0.26c0.74,0.05,1.51,0.09,2.28,0.11
						c0.16,0,0.28,0.13,0.27,0.29C178.47,446.19,178.35,446.31,178.2,446.31z M177.17,208.56c0.14-0.07,0.31-0.01,0.38,0.13
						c0.32,0.65,0.64,1.35,0.98,2.07c0.07,0.14,0.01,0.31-0.14,0.37c-0.04,0.02-0.08,0.03-0.12,0.03c-0.11,0-0.21-0.06-0.26-0.16
						c-0.34-0.73-0.67-1.42-0.98-2.07C176.97,208.79,177.03,208.62,177.17,208.56z M175.12,204.45c0.14-0.07,0.31-0.02,0.38,0.12
						c0.32,0.62,0.66,1.3,1.04,2.05c0.07,0.14,0.01,0.31-0.13,0.38c-0.04,0.02-0.08,0.03-0.12,0.03c-0.1,0-0.2-0.06-0.25-0.16
						c-0.37-0.75-0.72-1.43-1.03-2.04C174.93,204.69,174.98,204.52,175.12,204.45z"/>
				</g>
				<g>
					<path class="st1" d="M178.65,450.49c-1.62,0-2.67-0.04-2.86-0.05l-0.87-0.08c-1.39-0.13-2.73-0.26-4.02-0.53l5.04,14.16
						c2.4,0.42,18.15,2.78,31.46-5.58l-1.75-13.72C198.57,449.88,184.68,450.49,178.65,450.49z"/>
				</g>
				<g>
					<path class="st1" d="M416.57,343.83c-0.07,0.25-0.3,0.42-0.55,0.42c-0.05,0-0.1-0.01-0.15-0.02c-0.3-0.08-0.48-0.4-0.4-0.7
						c4.26-15.52,4.91-36.27,4.92-36.6c-3-47.61-11.69-82.48-17.57-101.4c-0.45-1.45-1.01-2.86-1.61-4.25
						c-0.19,0.34-0.47,0.84-0.84,1.53c-0.05,0.09-0.15,0.15-0.25,0.15c-0.05,0-0.09-0.01-0.13-0.03c-0.14-0.07-0.19-0.24-0.12-0.38
						c0.54-1.01,0.91-1.65,1.05-1.9c-0.61-1.35-1.28-2.67-2.03-3.94c-3.1,5.71-20.17,38.41-23.59,70.73
						c0.09,3.58,0.18,7.31,0.28,11.18c0.05-0.11,0.16-0.19,0.28-0.16c0.15,0.02,0.26,0.17,0.24,0.32c-0.11,0.75-0.22,1.51-0.33,2.26
						c-0.01,0.08-0.06,0.14-0.11,0.18c1.32,47.83,3.92,113.11,5.55,128c1.81,16.5-6.29,24.96-11.85,28.38l-0.44,3.46
						c0.69,0.24,1.37,0.48,2.04,0.7c0.15,0.05,0.23,0.21,0.18,0.36c-0.04,0.12-0.15,0.19-0.27,0.19c-0.03,0-0.06,0-0.09-0.01
						c-0.64-0.21-1.29-0.43-1.94-0.66l-0.23,1.78c8.35,6.77,29.42,5.92,29.63,5.91l0.82-0.08c4.25-0.41,8.06-0.77,11.3-5.81
						c-0.32,0.14-0.7,0.3-1.19,0.49c-0.03,0.01-0.07,0.02-0.1,0.02c-0.11,0-0.22-0.07-0.26-0.18c-0.05-0.15,0.02-0.31,0.16-0.36
						c1-0.38,1.64-0.7,1.91-0.84c5.13-8.99,8.74-30.82,10.32-85.36c0.41-14.25,0.26-27.71-0.3-40.36
						C420.28,324.35,419.01,334.93,416.57,343.83z M375.26,443.62c-0.02,0-0.05,0-0.07-0.01c-0.72-0.2-1.46-0.41-2.21-0.64
						c-0.15-0.04-0.23-0.2-0.19-0.35c0.05-0.15,0.2-0.23,0.35-0.19c0.74,0.22,1.47,0.43,2.19,0.63c0.15,0.04,0.24,0.2,0.2,0.35
						C375.5,443.53,375.39,443.62,375.26,443.62z M379.71,444.71c-0.02,0-0.04,0-0.06-0.01c-0.74-0.16-1.48-0.33-2.24-0.52
						c-0.15-0.04-0.24-0.19-0.21-0.34c0.04-0.15,0.19-0.24,0.34-0.21c0.75,0.19,1.5,0.36,2.22,0.51c0.15,0.03,0.25,0.18,0.22,0.34
						C379.96,444.62,379.84,444.71,379.71,444.71z M395.78,210.76c0.34-0.73,0.67-1.42,0.98-2.07c0.07-0.14,0.24-0.2,0.38-0.13
						c0.14,0.07,0.2,0.24,0.13,0.38c-0.31,0.65-0.64,1.34-0.98,2.07c-0.05,0.1-0.15,0.16-0.25,0.16c-0.04,0-0.08-0.01-0.12-0.03
						C395.78,211.07,395.72,210.9,395.78,210.76z M392.97,217.05c0.06-0.14,0.23-0.21,0.37-0.15c0.14,0.06,0.21,0.23,0.15,0.37
						c-0.29,0.68-0.59,1.39-0.89,2.11c-0.05,0.11-0.15,0.17-0.26,0.17c-0.04,0-0.07-0.01-0.11-0.02c-0.14-0.06-0.21-0.22-0.15-0.37
						C392.38,218.44,392.68,217.73,392.97,217.05z M387.93,229.85c0.05-0.15,0.21-0.22,0.36-0.17c0.15,0.05,0.22,0.21,0.17,0.36
						c-0.26,0.71-0.51,1.43-0.77,2.16c-0.04,0.12-0.15,0.19-0.27,0.19c-0.03,0-0.06-0.01-0.09-0.02c-0.15-0.05-0.22-0.21-0.17-0.36
						C387.42,231.28,387.67,230.56,387.93,229.85z M383.6,242.91c0.05-0.15,0.2-0.23,0.35-0.19c0.15,0.05,0.23,0.2,0.19,0.35
						c-0.22,0.72-0.43,1.45-0.65,2.19c-0.04,0.12-0.15,0.2-0.27,0.2c-0.03,0-0.05,0-0.08-0.01c-0.15-0.04-0.23-0.2-0.19-0.35
						C383.17,244.37,383.39,243.64,383.6,242.91z M382.32,247.32c0.04-0.15,0.21-0.24,0.35-0.19c0.15,0.04,0.24,0.2,0.2,0.35
						c-0.21,0.73-0.41,1.46-0.61,2.2c-0.03,0.13-0.15,0.21-0.27,0.21c-0.02,0-0.05,0-0.07-0.01c-0.15-0.04-0.24-0.2-0.2-0.35
						C381.91,248.78,382.11,248.04,382.32,247.32z M376.46,276.5c-0.02,0.14-0.14,0.24-0.28,0.24c-0.01,0-0.03,0-0.04,0
						c-0.15-0.02-0.26-0.17-0.24-0.32c0.12-0.76,0.24-1.51,0.37-2.26c0.02-0.15,0.18-0.26,0.32-0.23c0.15,0.03,0.26,0.17,0.23,0.32
						C376.7,274.99,376.58,275.74,376.46,276.5z M377.22,271.99c-0.02,0.14-0.14,0.23-0.28,0.23c-0.02,0-0.03,0-0.05,0
						c-0.15-0.03-0.26-0.17-0.23-0.33c0.14-0.76,0.27-1.51,0.41-2.26c0.03-0.15,0.18-0.25,0.33-0.22c0.15,0.03,0.25,0.18,0.23,0.33
						C377.49,270.48,377.36,271.23,377.22,271.99z M378.06,267.49c-0.03,0.13-0.14,0.23-0.28,0.23c-0.02,0-0.04,0-0.05-0.01
						c-0.15-0.03-0.25-0.18-0.22-0.33c0.15-0.75,0.3-1.5,0.45-2.25c0.03-0.15,0.18-0.25,0.33-0.22c0.15,0.03,0.25,0.18,0.22,0.33
						C378.36,265.99,378.21,266.74,378.06,267.49z M378.99,263.01c-0.03,0.13-0.14,0.22-0.27,0.22c-0.02,0-0.04,0-0.06-0.01
						c-0.15-0.03-0.25-0.18-0.22-0.33c0.16-0.75,0.33-1.5,0.49-2.24c0.03-0.15,0.19-0.25,0.34-0.21c0.15,0.03,0.25,0.19,0.21,0.34
						C379.32,261.51,379.15,262.26,378.99,263.01z M379.99,258.54c-0.03,0.13-0.15,0.22-0.27,0.22c-0.02,0-0.04,0-0.07-0.01
						c-0.15-0.04-0.24-0.19-0.21-0.34c0.18-0.75,0.35-1.49,0.53-2.23c0.04-0.15,0.19-0.24,0.34-0.21c0.15,0.04,0.24,0.19,0.21,0.34
						C380.35,257.06,380.17,257.8,379.99,258.54z M381.08,254.1c-0.03,0.13-0.15,0.21-0.27,0.21c-0.02,0-0.05,0-0.07-0.01
						c-0.15-0.04-0.24-0.19-0.2-0.34c0.19-0.75,0.38-1.49,0.57-2.22c0.04-0.15,0.19-0.24,0.34-0.2c0.15,0.04,0.24,0.19,0.2,0.34
						C381.46,252.62,381.27,253.35,381.08,254.1z M384.21,445.55c-0.01,0-0.03,0-0.04,0c-0.74-0.11-1.5-0.24-2.27-0.39
						c-0.15-0.03-0.25-0.18-0.23-0.33c0.03-0.15,0.19-0.25,0.33-0.22c0.76,0.14,1.51,0.27,2.25,0.38c0.15,0.02,0.26,0.17,0.24,0.32
						C384.47,445.45,384.35,445.55,384.21,445.55z M384.81,240.89c-0.04,0.12-0.15,0.2-0.27,0.2c-0.03,0-0.06,0-0.08-0.01
						c-0.15-0.05-0.23-0.2-0.19-0.35c0.23-0.74,0.46-1.47,0.69-2.19c0.05-0.15,0.21-0.23,0.35-0.18c0.15,0.05,0.23,0.21,0.18,0.35
						C385.27,239.43,385.04,240.15,384.81,240.89z M385.95,236.72c-0.03,0-0.06,0-0.09-0.01c-0.15-0.05-0.23-0.21-0.18-0.36
						c0.24-0.73,0.49-1.46,0.73-2.17c0.05-0.15,0.21-0.23,0.36-0.18c0.15,0.05,0.23,0.21,0.18,0.36c-0.24,0.71-0.49,1.44-0.73,2.17
						C386.18,236.65,386.07,236.72,385.95,236.72z M388.76,446.1c-0.01,0-0.02,0-0.02,0c-0.74-0.06-1.51-0.14-2.29-0.24
						c-0.16-0.02-0.26-0.16-0.25-0.31c0.02-0.15,0.17-0.27,0.31-0.25c0.77,0.09,1.53,0.17,2.27,0.24c0.15,0.01,0.27,0.15,0.26,0.31
						C389.03,445.99,388.9,446.1,388.76,446.1z M389.25,227.9c-0.04,0.11-0.15,0.18-0.26,0.18c-0.03,0-0.07-0.01-0.1-0.02
						c-0.15-0.05-0.22-0.22-0.17-0.36c0.27-0.73,0.54-1.44,0.81-2.15c0.05-0.15,0.22-0.22,0.36-0.16c0.15,0.06,0.22,0.22,0.16,0.36
						C389.79,226.46,389.52,227.17,389.25,227.9z M390.52,223.78c-0.14-0.06-0.22-0.22-0.16-0.37c0.29-0.73,0.57-1.44,0.85-2.13
						c0.06-0.14,0.23-0.21,0.37-0.16c0.15,0.06,0.22,0.22,0.16,0.37c-0.28,0.69-0.56,1.4-0.85,2.13c-0.04,0.11-0.15,0.18-0.26,0.18
						C390.59,223.8,390.55,223.79,390.52,223.78z M393.33,446.33C393.33,446.33,393.33,446.33,393.33,446.33
						c-0.75-0.01-1.51-0.03-2.3-0.07c-0.16-0.01-0.28-0.14-0.27-0.3c0.01-0.15,0.13-0.27,0.3-0.27c0.78,0.04,1.54,0.06,2.28,0.07
						c0.16,0,0.28,0.13,0.28,0.29C393.61,446.21,393.49,446.33,393.33,446.33z M394.4,215.17c-0.05,0.11-0.15,0.17-0.26,0.17
						c-0.04,0-0.08-0.01-0.11-0.02c-0.14-0.06-0.21-0.23-0.14-0.37c0.32-0.72,0.63-1.42,0.94-2.1c0.07-0.14,0.23-0.21,0.37-0.14
						c0.14,0.06,0.2,0.23,0.14,0.37C395.03,213.75,394.72,214.45,394.4,215.17z M397.93,446.2c-0.75,0.05-1.52,0.09-2.3,0.11
						c0,0-0.01,0-0.01,0c-0.15,0-0.28-0.12-0.28-0.27c-0.01-0.16,0.12-0.29,0.27-0.29c0.77-0.02,1.53-0.06,2.28-0.11
						c0.17-0.01,0.29,0.11,0.3,0.26C398.2,446.05,398.09,446.19,397.93,446.2z M399.31,204.83c-0.32,0.62-0.66,1.3-1.03,2.04
						c-0.05,0.1-0.15,0.16-0.25,0.16c-0.04,0-0.09-0.01-0.13-0.03c-0.14-0.07-0.2-0.24-0.13-0.38c0.37-0.75,0.72-1.43,1.04-2.05
						c0.07-0.14,0.24-0.19,0.38-0.12C399.33,204.52,399.38,204.69,399.31,204.83z M402.5,445.65c-0.74,0.13-1.51,0.24-2.28,0.33
						c-0.01,0-0.02,0-0.03,0c-0.14,0-0.26-0.11-0.28-0.25c-0.02-0.15,0.09-0.29,0.25-0.31c0.76-0.09,1.52-0.2,2.25-0.32
						c0.14-0.03,0.3,0.08,0.32,0.23C402.76,445.48,402.66,445.63,402.5,445.65z M407,444.63c-0.72,0.21-1.47,0.41-2.23,0.58
						c-0.02,0-0.04,0.01-0.06,0.01c-0.13,0-0.24-0.09-0.28-0.22c-0.03-0.15,0.06-0.3,0.21-0.34c0.75-0.17,1.49-0.36,2.2-0.57
						c0.16-0.04,0.31,0.04,0.35,0.19C407.23,444.43,407.15,444.58,407,444.63z"/>
				</g>
				<g>
					<path d="M181.7,219.38c0.05,0.11,0.15,0.17,0.26,0.17c0.04,0,0.07-0.01,0.11-0.02c0.14-0.06,0.21-0.22,0.15-0.37
						c-0.3-0.72-0.6-1.43-0.89-2.11c-0.06-0.14-0.23-0.21-0.37-0.15c-0.14,0.06-0.21,0.23-0.15,0.37
						C181.11,217.95,181.4,218.66,181.7,219.38z"/>
				</g>
				<g>
					<path d="M183.68,223.8c0.03,0,0.07-0.01,0.1-0.02c0.14-0.06,0.22-0.22,0.16-0.37c-0.29-0.73-0.57-1.44-0.85-2.13
						c-0.06-0.14-0.23-0.21-0.37-0.16c-0.14,0.06-0.21,0.22-0.16,0.37c0.28,0.69,0.56,1.4,0.85,2.13
						C183.47,223.73,183.57,223.8,183.68,223.8z"/>
				</g>
				<g>
					<path d="M195.79,265.25c0.15,0.74,0.3,1.49,0.45,2.24c0.03,0.13,0.14,0.23,0.28,0.23c0.02,0,0.04,0,0.05-0.01
						c0.15-0.03,0.25-0.18,0.22-0.33c-0.15-0.75-0.3-1.5-0.45-2.25c-0.03-0.15-0.18-0.25-0.33-0.22
						C195.86,264.95,195.76,265.09,195.79,265.25z"/>
				</g>
				<g>
					<path d="M194.59,258.76c0.02,0,0.04,0,0.07-0.01c0.15-0.04,0.24-0.19,0.21-0.34c-0.18-0.75-0.35-1.49-0.53-2.23
						c-0.04-0.15-0.19-0.24-0.34-0.21c-0.15,0.04-0.24,0.19-0.21,0.34c0.18,0.74,0.36,1.48,0.53,2.23
						C194.34,258.67,194.46,258.76,194.59,258.76z"/>
				</g>
				<g>
					<path d="M195.32,263.01c0.03,0.13,0.15,0.22,0.28,0.22c0.02,0,0.04,0,0.06-0.01c0.15-0.03,0.25-0.18,0.21-0.33
						c-0.16-0.75-0.33-1.5-0.49-2.24c-0.03-0.15-0.18-0.25-0.34-0.21c-0.15,0.03-0.25,0.19-0.21,0.34
						C194.99,261.51,195.15,262.26,195.32,263.01z"/>
				</g>
				<g>
					<path d="M176.28,207.03c0.04,0,0.09-0.01,0.12-0.03c0.14-0.07,0.2-0.24,0.13-0.38c-0.37-0.75-0.72-1.43-1.04-2.05
						c-0.07-0.14-0.24-0.19-0.38-0.12c-0.14,0.07-0.19,0.24-0.12,0.38c0.32,0.62,0.66,1.3,1.03,2.04
						C176.08,206.97,176.18,207.03,176.28,207.03z"/>
				</g>
				<g>
					<path d="M186.88,232.39c0.03,0,0.06-0.01,0.09-0.02c0.15-0.05,0.22-0.21,0.17-0.36c-0.26-0.73-0.51-1.45-0.77-2.16
						c-0.05-0.15-0.21-0.22-0.36-0.17c-0.15,0.05-0.22,0.21-0.17,0.36c0.26,0.71,0.51,1.43,0.77,2.16
						C186.66,232.32,186.76,232.39,186.88,232.39z"/>
				</g>
				<g>
					<path d="M179.9,215.17c0.05,0.11,0.15,0.17,0.26,0.17c0.04,0,0.08-0.01,0.11-0.02c0.14-0.06,0.21-0.23,0.14-0.37
						c-0.32-0.72-0.63-1.42-0.94-2.1c-0.07-0.14-0.23-0.21-0.37-0.14c-0.14,0.06-0.2,0.23-0.14,0.37
						C179.27,213.75,179.59,214.45,179.9,215.17z"/>
				</g>
				<g>
					<path d="M185.32,228.08c0.03,0,0.07-0.01,0.1-0.02c0.15-0.05,0.22-0.22,0.17-0.36c-0.27-0.73-0.54-1.44-0.81-2.15
						c-0.05-0.15-0.22-0.22-0.36-0.16c-0.14,0.06-0.22,0.22-0.16,0.36c0.27,0.7,0.54,1.42,0.81,2.14
						C185.1,228.01,185.21,228.08,185.32,228.08z"/>
				</g>
				<g>
					<path d="M197.48,274.24c0.13,0.75,0.25,1.5,0.37,2.26c0.02,0.14,0.14,0.24,0.28,0.24c0.01,0,0.03,0,0.04,0
						c0.15-0.02,0.26-0.17,0.23-0.32c-0.12-0.76-0.24-1.51-0.37-2.26c-0.02-0.15-0.18-0.26-0.32-0.23
						C197.55,273.94,197.45,274.09,197.48,274.24z"/>
				</g>
				<g>
					<path d="M191.09,245.47c0.03,0,0.05,0,0.08-0.01c0.15-0.04,0.23-0.2,0.19-0.35c-0.22-0.74-0.43-1.47-0.65-2.2
						c-0.04-0.15-0.19-0.23-0.35-0.19c-0.15,0.05-0.23,0.2-0.19,0.35c0.22,0.72,0.43,1.45,0.65,2.19
						C190.85,245.39,190.96,245.47,191.09,245.47z"/>
				</g>
				<g>
					<path d="M196.67,269.74c0.14,0.75,0.28,1.5,0.41,2.25c0.02,0.14,0.14,0.23,0.28,0.23c0.02,0,0.03,0,0.05,0
						c0.15-0.03,0.26-0.17,0.23-0.33c-0.14-0.76-0.27-1.51-0.41-2.26c-0.03-0.15-0.18-0.25-0.33-0.22
						C196.75,269.44,196.65,269.58,196.67,269.74z"/>
				</g>
				<g>
					<path d="M193.5,254.31c0.02,0,0.05,0,0.07-0.01c0.15-0.04,0.24-0.19,0.2-0.34c-0.19-0.75-0.38-1.49-0.57-2.22
						c-0.04-0.15-0.19-0.24-0.34-0.2c-0.15,0.04-0.24,0.19-0.2,0.34c0.19,0.73,0.39,1.47,0.57,2.21
						C193.26,254.23,193.37,254.31,193.5,254.31z"/>
				</g>
				<g>
					<path d="M192.33,249.88c0.02,0,0.05,0,0.07-0.01c0.15-0.04,0.24-0.2,0.2-0.35c-0.2-0.74-0.41-1.48-0.61-2.21
						c-0.04-0.15-0.21-0.24-0.35-0.19c-0.15,0.04-0.24,0.2-0.2,0.35c0.21,0.73,0.41,1.46,0.61,2.2
						C192.09,249.8,192.21,249.88,192.33,249.88z"/>
				</g>
				<g>
					<path d="M188.36,236.72c0.03,0,0.06,0,0.09-0.01c0.15-0.05,0.23-0.21,0.18-0.36c-0.24-0.73-0.49-1.46-0.73-2.17
						c-0.05-0.15-0.21-0.23-0.36-0.18c-0.15,0.05-0.23,0.21-0.18,0.36c0.24,0.71,0.49,1.44,0.73,2.17
						C188.13,236.65,188.24,236.72,188.36,236.72z"/>
				</g>
				<g>
					<path d="M189.76,241.09c0.03,0,0.06,0,0.08-0.01c0.15-0.05,0.23-0.2,0.19-0.35c-0.23-0.74-0.46-1.47-0.69-2.19
						c-0.05-0.15-0.21-0.23-0.35-0.18c-0.15,0.05-0.23,0.21-0.18,0.35c0.23,0.72,0.46,1.45,0.69,2.18
						C189.53,241.01,189.64,241.09,189.76,241.09z"/>
				</g>
				<g>
					<path d="M178.01,211c0.05,0.1,0.15,0.16,0.26,0.16c0.04,0,0.08-0.01,0.12-0.03c0.14-0.07,0.2-0.23,0.14-0.37
						c-0.34-0.73-0.67-1.42-0.98-2.07c-0.07-0.14-0.24-0.2-0.38-0.13c-0.14,0.07-0.2,0.24-0.13,0.38
						C177.35,209.58,177.68,210.27,178.01,211z"/>
				</g>
				<g>
					<path d="M395.2,212.71c-0.14-0.07-0.31,0-0.37,0.14c-0.3,0.67-0.62,1.37-0.94,2.1c-0.06,0.14,0,0.31,0.14,0.37
						c0.04,0.02,0.08,0.02,0.11,0.02c0.11,0,0.21-0.06,0.26-0.17c0.32-0.72,0.63-1.42,0.93-2.09
						C395.4,212.94,395.34,212.77,395.2,212.71z"/>
				</g>
				<g>
					<path d="M381.9,249.87c0.02,0.01,0.05,0.01,0.07,0.01c0.12,0,0.24-0.08,0.27-0.21c0.2-0.74,0.41-1.48,0.61-2.2
						c0.04-0.15-0.05-0.31-0.2-0.35c-0.14-0.04-0.3,0.04-0.35,0.19c-0.21,0.73-0.41,1.47-0.61,2.21
						C381.66,249.68,381.75,249.83,381.9,249.87z"/>
				</g>
				<g>
					<path d="M377.41,269.41c-0.15-0.03-0.3,0.07-0.33,0.22c-0.14,0.75-0.28,1.5-0.41,2.26c-0.03,0.15,0.07,0.3,0.23,0.33
						c0.02,0,0.03,0,0.05,0c0.13,0,0.25-0.1,0.28-0.23c0.14-0.76,0.27-1.51,0.41-2.25C377.66,269.58,377.56,269.44,377.41,269.41z"
						/>
				</g>
				<g>
					<path d="M390.88,223.62c0.29-0.72,0.57-1.43,0.85-2.13c0.06-0.14-0.01-0.31-0.16-0.37c-0.14-0.06-0.31,0.01-0.37,0.16
						c-0.28,0.69-0.56,1.41-0.85,2.13c-0.06,0.14,0.01,0.31,0.16,0.37c0.03,0.01,0.07,0.02,0.1,0.02
						C390.73,223.8,390.84,223.73,390.88,223.62z"/>
				</g>
				<g>
					<path d="M389.89,225.39c-0.15-0.05-0.31,0.02-0.36,0.16c-0.27,0.7-0.54,1.42-0.81,2.15c-0.05,0.15,0.02,0.31,0.17,0.36
						c0.03,0.01,0.07,0.02,0.1,0.02c0.11,0,0.22-0.07,0.26-0.18c0.27-0.73,0.54-1.44,0.81-2.14
						C390.11,225.61,390.04,225.45,389.89,225.39z"/>
				</g>
				<g>
					<path d="M378.3,264.91c-0.15-0.03-0.3,0.07-0.33,0.22c-0.15,0.74-0.3,1.49-0.45,2.25c-0.03,0.15,0.07,0.3,0.22,0.33
						c0.02,0,0.04,0.01,0.05,0.01c0.13,0,0.25-0.09,0.28-0.23c0.15-0.75,0.3-1.5,0.45-2.24
						C378.55,265.09,378.45,264.95,378.3,264.91z"/>
				</g>
				<g>
					<path d="M398.81,204.57c-0.32,0.62-0.66,1.3-1.04,2.05c-0.07,0.14-0.01,0.31,0.13,0.38c0.04,0.02,0.08,0.03,0.13,0.03
						c0.1,0,0.2-0.06,0.25-0.16c0.37-0.75,0.72-1.43,1.03-2.04c0.07-0.14,0.02-0.31-0.12-0.38
						C399.05,204.38,398.88,204.43,398.81,204.57z"/>
				</g>
				<g>
					<path d="M386.94,234.36c0.05-0.15-0.03-0.31-0.18-0.36c-0.15-0.05-0.31,0.03-0.36,0.18c-0.24,0.72-0.49,1.44-0.73,2.17
						c-0.05,0.15,0.03,0.31,0.18,0.36c0.03,0.01,0.06,0.01,0.09,0.01c0.12,0,0.23-0.07,0.27-0.19
						C386.46,235.8,386.7,235.07,386.94,234.36z"/>
				</g>
				<g>
					<path d="M380.32,255.98c-0.15-0.04-0.3,0.06-0.34,0.21c-0.18,0.74-0.36,1.48-0.53,2.23c-0.04,0.15,0.06,0.3,0.21,0.34
						c0.02,0.01,0.04,0.01,0.07,0.01c0.13,0,0.24-0.09,0.27-0.22c0.18-0.75,0.35-1.49,0.53-2.23
						C380.57,256.17,380.47,256.02,380.32,255.98z"/>
				</g>
				<g>
					<path d="M379.27,260.44c-0.14-0.03-0.3,0.06-0.34,0.21c-0.17,0.74-0.33,1.49-0.49,2.24c-0.03,0.15,0.06,0.3,0.22,0.33
						c0.02,0,0.04,0.01,0.06,0.01c0.13,0,0.25-0.09,0.27-0.22c0.16-0.75,0.33-1.5,0.49-2.23
						C379.52,260.62,379.42,260.47,379.27,260.44z"/>
				</g>
				<g>
					<path d="M376.6,273.92c-0.15-0.03-0.3,0.08-0.32,0.23c-0.13,0.75-0.25,1.51-0.37,2.26c-0.02,0.15,0.08,0.3,0.24,0.32
						c0.01,0,0.03,0,0.04,0c0.14,0,0.26-0.1,0.28-0.24c0.12-0.76,0.24-1.51,0.37-2.26C376.86,274.09,376.75,273.94,376.6,273.92z"/>
				</g>
				<g>
					<path d="M392.34,219.55c0.11,0,0.22-0.07,0.26-0.17c0.3-0.72,0.6-1.43,0.89-2.11c0.06-0.14-0.01-0.31-0.15-0.37
						c-0.14-0.06-0.31,0-0.37,0.15c-0.29,0.68-0.59,1.39-0.89,2.11c-0.06,0.14,0.01,0.31,0.15,0.37
						C392.27,219.54,392.31,219.55,392.34,219.55z"/>
				</g>
				<g>
					<path d="M396.04,211.16c0.11,0,0.21-0.06,0.25-0.16c0.34-0.73,0.67-1.42,0.98-2.07c0.07-0.14,0.01-0.31-0.13-0.38
						c-0.14-0.07-0.31-0.01-0.38,0.13c-0.32,0.65-0.64,1.35-0.98,2.07c-0.07,0.14-0.01,0.31,0.14,0.37
						C395.96,211.15,396,211.16,396.04,211.16z"/>
				</g>
				<g>
					<path d="M387.33,232.37c0.03,0.01,0.06,0.02,0.09,0.02c0.12,0,0.22-0.07,0.27-0.19c0.26-0.73,0.51-1.45,0.77-2.16
						c0.05-0.15-0.02-0.31-0.17-0.36c-0.15-0.05-0.31,0.02-0.36,0.17c-0.26,0.71-0.51,1.43-0.77,2.16
						C387.11,232.16,387.19,232.32,387.33,232.37z"/>
				</g>
				<g>
					<path d="M385.32,238.35c-0.14-0.04-0.31,0.03-0.35,0.18c-0.23,0.72-0.46,1.45-0.69,2.19c-0.05,0.15,0.04,0.31,0.19,0.35
						c0.03,0.01,0.06,0.01,0.08,0.01c0.12,0,0.23-0.08,0.27-0.2c0.23-0.74,0.46-1.46,0.69-2.18
						C385.55,238.56,385.47,238.4,385.32,238.35z"/>
				</g>
				<g>
					<path d="M383.14,245.46c0.03,0.01,0.05,0.01,0.08,0.01c0.12,0,0.23-0.08,0.27-0.2c0.22-0.74,0.43-1.47,0.65-2.19
						c0.04-0.15-0.04-0.31-0.19-0.35c-0.16-0.04-0.31,0.04-0.35,0.19c-0.22,0.72-0.44,1.46-0.65,2.2
						C382.91,245.26,382.99,245.42,383.14,245.46z"/>
				</g>
				<g>
					<path d="M381.45,251.54c-0.15-0.04-0.31,0.05-0.34,0.2c-0.19,0.73-0.38,1.47-0.57,2.22c-0.04,0.15,0.05,0.3,0.2,0.34
						c0.02,0.01,0.05,0.01,0.07,0.01c0.13,0,0.24-0.08,0.27-0.21c0.19-0.74,0.38-1.48,0.57-2.21
						C381.69,251.73,381.6,251.58,381.45,251.54z"/>
				</g>
				<g>
					<path d="M403.92,205.19c-1.08-3.46-2.59-6.76-4.47-9.81c-0.03-0.1-0.09-0.19-0.17-0.26c-2.93-4.69-6.72-8.79-11.18-11.98
						c-13.88-9.92-27.45-16.88-34.3-20.14c-3.16-1.51-6.54-2.27-10.04-2.27h-12.18c-0.03,0-0.05,0.01-0.08,0.02l-0.01-0.02
						c-48.33,11.86-85.76,0.97-88.7,0.07c-0.02-0.01-0.04-0.01-0.06-0.02c-0.08-0.02-0.13-0.04-0.14-0.04l0,0.01
						c-0.02,0-0.04-0.01-0.06-0.01h-12.18c-3.5,0-6.88,0.76-10.04,2.27c-6.85,3.26-20.42,10.22-34.3,20.14
						c-4.46,3.19-8.25,7.29-11.18,11.98c-0.08,0.07-0.15,0.16-0.17,0.26c-1.88,3.05-3.4,6.35-4.47,9.81
						c-7.8,25.12-20.57,78.27-18.45,152.01c2.22,76.89,8.69,89.53,17.82,92.29l5.41,15.18c0.07,0.19,0.23,0.33,0.42,0.37
						c0.08,0.02,3.5,0.71,8.55,0.71c6.4,0,15.41-1.12,23.61-6.11l0.66,5.14c0.03,0.25,0.22,0.45,0.47,0.49
						c0.35,0.06,35.3,6.17,78.34,6.17c0.01,0,0.02-0.01,0.03-0.01c0.01,0,0.02,0.01,0.03,0.01c43.05,0,78-6.11,78.34-6.17
						c0.25-0.04,0.44-0.24,0.47-0.49l0.66-5.14c8.2,4.99,17.21,6.11,23.61,6.11c5.06,0,8.48-0.69,8.55-0.71
						c0.19-0.04,0.36-0.18,0.42-0.37l5.4-15.18c9.13-2.76,15.6-15.4,17.82-92.29C424.49,283.46,411.72,230.31,403.92,205.19z
						 M286.13,167.47c12.74,0,27.64-1.38,43.77-5.18c-3.89,3.99-17.36,15.55-42.82,15.55c-0.01,0-0.02,0.01-0.03,0.01
						c-0.01,0-0.02-0.01-0.03-0.01c-25.02,0-38.47-11.17-42.61-15.34C249.6,163.9,264.86,167.47,286.13,167.47z M186.68,184.07
						c13.81-9.87,27.31-16.79,34.12-20.04c3.01-1.43,6.22-2.16,9.55-2.16h8.06c0.08,0.16,0.17,0.35,0.3,0.59
						c0.05,0.09,0.15,0.15,0.25,0.15c0.05,0,0.09-0.01,0.13-0.03c0.14-0.07,0.19-0.25,0.11-0.38c-0.06-0.12-0.12-0.22-0.17-0.32
						h3.22c1.72,2.03,15.5,17.11,44.75,17.11c0.01,0,0.02-0.01,0.03-0.01c0.01,0,0.02,0.01,0.03,0.01
						c29.26,0,43.04-15.09,44.75-17.11h3.74c-0.08,0.16-0.18,0.34-0.33,0.58c-0.08,0.13-0.03,0.31,0.1,0.39
						c0.05,0.03,0.09,0.04,0.14,0.04c0.1,0,0.19-0.05,0.24-0.14c0.24-0.41,0.39-0.7,0.47-0.87h7.54c3.33,0,6.54,0.73,9.55,2.16
						c6.82,3.25,20.31,10.17,34.12,20.04c4.29,3.07,7.94,7.01,10.78,11.51c-1.85,3.36-17.92,33.17-23.06,64.56
						c-0.19-9.17-0.3-16.91-0.3-22.44c0-0.32-0.26-0.57-0.57-0.57s-0.57,0.26-0.57,0.57c0,33.89,4.12,151.01,6.38,171.63
						c2.27,20.7-11.47,28.19-14.99,28.94c-0.36,0.07-36.01,7.3-78,7.3c-0.01,0-0.02,0.01-0.03,0.01c-0.01,0-0.02-0.01-0.03-0.01
						c-41.99,0-77.65-7.23-78-7.3c-3.52-0.75-17.26-8.24-14.99-28.94c1.59-14.47,4.09-76.44,5.44-123.84
						c0.11-0.05,0.2-0.15,0.18-0.28c-0.05-0.37-0.09-0.74-0.14-1.11c0.55-19.57,0.9-36.53,0.9-46.41c0-0.32-0.26-0.57-0.57-0.57
						s-0.57,0.26-0.57,0.57c0,5.52-0.11,13.27-0.3,22.43c-5.14-31.38-21.21-61.19-23.06-64.56
						C178.74,191.08,182.39,187.14,186.68,184.07z M163.85,443.58c0.23,0.1,0.48,0.2,0.78,0.31c0.03,0.01,0.07,0.02,0.1,0.02
						c0.11,0,0.22-0.07,0.26-0.18c0.05-0.15-0.02-0.31-0.16-0.36c-0.66-0.25-1.17-0.48-1.51-0.64c-5.18-8.86-8.84-30.62-10.43-85.56
						c-0.41-14.28-0.26-27.77,0.3-40.44c0.64,7.55,1.9,18.17,4.35,27.1c0.07,0.25,0.3,0.42,0.55,0.42c0.05,0,0.1-0.01,0.15-0.02
						c0.3-0.08,0.48-0.4,0.4-0.7c-4.27-15.56-4.92-36.4-4.92-36.61c0-0.01-0.01-0.02-0.01-0.04c3-47.59,11.69-82.44,17.57-101.35
						c0.47-1.52,1.06-3,1.7-4.44c0.17,0.31,0.49,0.87,0.95,1.72c0.05,0.09,0.15,0.15,0.25,0.15c0.04,0,0.09-0.01,0.13-0.03
						c0.14-0.07,0.19-0.24,0.12-0.38c-0.71-1.33-1.12-2.02-1.12-2.02c-0.01-0.02-0.04-0.02-0.05-0.04c0.59-1.29,1.24-2.56,1.95-3.78
						c3.1,5.71,20.17,38.41,23.59,70.73c-0.08,3.53-0.18,7.22-0.28,11.03c-0.03,0-0.05-0.02-0.08-0.02
						c-0.15,0.02-0.26,0.17-0.24,0.32c0.09,0.6,0.17,1.2,0.26,1.8c-1.31,47.89-3.93,113.69-5.57,128.65
						c-1.81,16.5,6.29,24.96,11.85,28.38l0.44,3.43c-0.05-0.02-0.11-0.03-0.17-0.01c-0.73,0.26-1.45,0.5-2.16,0.74
						c-0.15,0.05-0.23,0.21-0.18,0.36c0.04,0.12,0.15,0.19,0.27,0.19c0.03,0,0.06,0,0.09-0.01c0.72-0.24,1.44-0.48,2.17-0.74
						c0.02-0.01,0.03-0.03,0.04-0.04l0.24,1.89c-8.35,6.77-29.42,5.92-29.6,5.91l-0.85-0.08
						C170.83,448.81,167.06,448.45,163.85,443.58z M175.94,463.98l-5.04-14.16c1.29,0.27,2.64,0.4,4.02,0.53l0.87,0.08
						c0.19,0.01,1.24,0.05,2.86,0.05c6.02,0,19.92-0.61,26.99-5.81l1.75,13.72C194.09,466.77,178.33,464.41,175.94,463.98z
						 M364.82,464.23c-4.06,0.69-37.32,6.08-77.73,6.08c-0.01,0-0.02,0.01-0.03,0.01c-0.01,0-0.02-0.01-0.03-0.01
						c-40.41,0-73.67-5.4-77.73-6.08l-3.31-25.94c1.16,0.6,2.15,0.96,2.8,1.1c0.36,0.07,36.13,7.33,78.24,7.33
						c0.01,0,0.02-0.01,0.03-0.01c0.01,0,0.02,0.01,0.03,0.01c42.11,0,77.88-7.25,78.24-7.33c0.65-0.14,1.63-0.5,2.8-1.1
						L364.82,464.23z M398.17,463.98c-2.4,0.43-18.15,2.78-31.46-5.58l1.75-13.72c7.06,5.19,20.94,5.8,26.99,5.8
						c1.64,0,2.7-0.04,2.89-0.05l0.84-0.08c1.39-0.13,2.73-0.26,4.02-0.53L398.17,463.98z M421.22,357.17
						c-1.57,54.54-5.19,76.38-10.32,85.36c-0.27,0.14-0.91,0.46-1.91,0.84c-0.15,0.06-0.22,0.22-0.16,0.36
						c0.04,0.11,0.15,0.18,0.26,0.18c0.03,0,0.07-0.01,0.1-0.02c0.49-0.19,0.86-0.35,1.19-0.49c-3.24,5.04-7.05,5.41-11.3,5.81
						l-0.82,0.08c-0.21,0.01-21.29,0.87-29.63-5.91l0.23-1.78c0.65,0.23,1.3,0.45,1.94,0.66c0.03,0.01,0.06,0.01,0.09,0.01
						c0.12,0,0.23-0.07,0.27-0.19c0.05-0.15-0.03-0.31-0.18-0.36c-0.67-0.22-1.36-0.46-2.04-0.7l0.44-3.46
						c5.56-3.42,13.66-11.88,11.85-28.38c-1.63-14.89-4.23-80.17-5.55-128c0.06-0.04,0.1-0.1,0.11-0.18
						c0.11-0.76,0.21-1.51,0.33-2.26c0.02-0.15-0.08-0.3-0.24-0.32c-0.12-0.02-0.22,0.06-0.28,0.16c-0.1-3.86-0.2-7.6-0.28-11.18
						c3.41-32.31,20.49-65.01,23.59-70.73c0.75,1.27,1.41,2.59,2.03,3.94c-0.14,0.25-0.51,0.89-1.05,1.9
						c-0.07,0.14-0.02,0.31,0.12,0.38c0.04,0.02,0.09,0.03,0.13,0.03c0.1,0,0.2-0.05,0.25-0.15c0.37-0.69,0.65-1.19,0.84-1.53
						c0.6,1.39,1.16,2.8,1.61,4.25c5.88,18.92,14.57,53.78,17.57,101.4c-0.01,0.33-0.66,21.09-4.92,36.6c-0.08,0.3,0.1,0.62,0.4,0.7
						c0.05,0.01,0.1,0.02,0.15,0.02c0.25,0,0.48-0.17,0.55-0.42c2.44-8.89,3.71-19.47,4.35-27.02
						C421.48,329.46,421.63,342.92,421.22,357.17z"/>
					<path d="M287.09,471.78l-0.08-0.01c-0.01,0-0.01,0-0.01,0c-42.84,0-78.03-6.11-78.38-6.17c-0.39-0.07-0.69-0.38-0.74-0.78
						l-0.59-4.64c-8.24,4.86-17.22,5.89-23.35,5.89c-5.07,0-8.48-0.69-8.62-0.72c-0.31-0.06-0.56-0.29-0.66-0.58l-5.35-15.03
						c-9.97-3.16-15.77-19.04-17.9-92.55c-2.13-73.78,10.66-126.98,18.46-152.12c1.06-3.42,2.57-6.73,4.49-9.85
						c0.04-0.12,0.11-0.23,0.22-0.34c3.01-4.81,6.79-8.86,11.24-12.04c13.91-9.94,27.49-16.9,34.35-20.17
						c3.21-1.53,6.63-2.3,10.18-2.3h11.95l0.01-0.1l0.63,0.21c1.55,0.47,39.73,11.87,88.47-0.1l0.31-0.08l0.02,0.07h12.01
						c3.55,0,6.97,0.78,10.18,2.3c6.86,3.27,20.44,10.23,34.35,20.17c4.45,3.18,8.23,7.23,11.24,12.04c0.1,0.1,0.18,0.21,0.22,0.34
						c1.91,3.12,3.42,6.43,4.49,9.85l0,0c7.81,25.14,20.59,78.33,18.46,152.12c-2.12,73.51-7.93,89.39-17.89,92.55l-5.35,15.03
						c-0.1,0.29-0.36,0.52-0.66,0.58c-0.04,0.01-3.53,0.72-8.62,0.72c-6.13,0-15.1-1.03-23.35-5.89l-0.59,4.64
						c-0.05,0.39-0.35,0.71-0.74,0.77C365.15,465.67,329.9,471.78,287.09,471.78z M287.08,471.12l0.08,0.02
						c42.68-0.01,77.87-6.11,78.21-6.18c0.11-0.02,0.19-0.1,0.2-0.21l0.72-5.65l0.43,0.26c8.23,5.01,17.29,6.06,23.44,6.06
						c5.03,0,8.45-0.7,8.49-0.7c0.08-0.02,0.15-0.08,0.18-0.15l5.46-15.34l0.16-0.05c3.96-1.2,8.06-4.22,11.27-18.11
						c3.26-14.07,5.26-37.55,6.31-73.88c2.13-73.69-10.64-126.81-18.43-151.91l0,0c-1.05-3.38-2.54-6.65-4.44-9.73l-0.04-0.08
						c-0.01-0.03-0.04-0.07-0.08-0.11l-0.06-0.07c-2.97-4.75-6.7-8.75-11.09-11.88c-13.87-9.91-27.41-16.85-34.25-20.11
						c-3.12-1.49-6.45-2.24-9.9-2.24l-12.35,0.02c-48.83,11.94-87.1,0.52-88.71,0.03l-0.23-0.06l-12.11,0.01
						c-3.45,0-6.78,0.75-9.9,2.24c-6.84,3.26-20.38,10.2-34.25,20.11c-4.39,3.14-8.12,7.14-11.09,11.88l-0.06,0.07
						c-0.04,0.04-0.07,0.08-0.08,0.11l-0.04,0.09c-1.9,3.08-3.39,6.36-4.44,9.73c-7.8,25.1-20.56,78.22-18.43,151.91
						c1.05,36.33,3.05,59.81,6.31,73.88c3.22,13.89,7.32,16.91,11.27,18.11l0.16,0.05l5.46,15.34c0.03,0.08,0.1,0.14,0.18,0.16
						c0.14,0.03,3.49,0.7,8.49,0.7c6.15,0,15.21-1.05,23.44-6.06l0.43-0.26l0.72,5.65c0.01,0.11,0.09,0.19,0.2,0.21
						c0.34,0.06,35.53,6.17,78.29,6.17L287.08,471.12z M287.03,470.64l-0.09-0.01c-0.04,0-0.08,0-0.12,0
						c-40.47,0-73.91-5.46-77.59-6.08l-0.24-0.04l-3.42-26.8l0.56,0.29c1.03,0.53,2.02,0.92,2.72,1.07
						c0.35,0.07,36.06,7.32,78.17,7.32l0.06,0l0.09,0.01c42.02-0.01,77.74-7.26,78.1-7.33c0.7-0.15,1.69-0.54,2.71-1.07l0.56-0.29
						l-3.41,26.8l-0.24,0.04c-3.69,0.62-37.18,6.09-77.78,6.09L287.03,470.64z M209.59,463.94c4.71,0.79,37.65,6.04,77.43,6.04
						l0.08,0.01c39.8-0.01,72.72-5.26,77.43-6.05l3.2-25.08c-0.87,0.42-1.7,0.72-2.32,0.85c-0.36,0.07-36.14,7.33-78.31,7.33
						l-0.08-0.01c0,0,0,0-0.01,0c-42.2,0-77.93-7.25-78.29-7.33c-0.63-0.13-1.45-0.44-2.33-0.86L209.59,463.94z M390.08,464.96
						c-6.4,0-15.38-1.15-23.54-6.28l-0.18-0.11l1.85-14.48l0.45,0.33c7.05,5.18,21.09,5.74,26.79,5.74c1.74,0,2.83-0.05,2.88-0.05
						l0.83-0.08c1.33-0.13,2.7-0.26,3.99-0.52l0.57-0.12l-5.3,14.89l-0.19,0.03C397.09,464.51,394.09,464.96,390.08,464.96z
						 M367.07,458.24c12.93,8.02,28.35,5.87,30.86,5.45l4.78-13.43c-1.15,0.2-2.34,0.32-3.49,0.43l-0.84,0.08
						c-0.13,0.01-1.2,0.05-2.92,0.05c-5.65,0-19.4-0.55-26.73-5.55L367.07,458.24z M184.02,464.96c-4.01,0-7-0.45-8.14-0.65
						l-0.19-0.03l-5.3-14.89l0.57,0.12c1.29,0.27,2.66,0.4,3.99,0.52l0.87,0.08c0.18,0.01,1.21,0.05,2.83,0.05
						c5.71,0,19.74-0.56,26.79-5.74l0.45-0.33l1.85,14.48l-0.18,0.11C199.41,463.81,190.42,464.96,184.02,464.96z M176.18,463.69
						c2.51,0.42,17.93,2.56,30.86-5.45l-1.65-12.96c-7.34,5-21.08,5.55-26.73,5.55c-1.63,0-2.68-0.04-2.88-0.05l-0.89-0.08
						c-1.15-0.11-2.34-0.22-3.49-0.43L176.18,463.69z M178.42,449.67c-1.56,0-2.51-0.04-2.55-0.04l-0.86-0.08
						c-4.18-0.4-8.12-0.78-11.42-5.78l-0.6-0.9l0.04,0.02c-5.89-10.1-9.02-35.73-10.46-85.7c-0.39-13.52-0.29-27.14,0.3-40.46
						l0.66-0.01c0.63,7.39,1.89,18.09,4.34,27.04c0.03,0.11,0.13,0.18,0.23,0.18c0.13-0.03,0.18-0.07,0.21-0.12
						c0.03-0.06,0.04-0.12,0.02-0.18c-4.3-15.68-4.93-36.48-4.93-36.69c2.92-46.55,11.17-80.88,17.57-101.5
						c0.43-1.38,0.97-2.8,1.71-4.48l0.26-0.6l0,0l0.01-0.01c0.65-1.41,1.29-2.66,1.97-3.81l0.3-0.5l0.28,0.51
						c3.35,6.17,20.22,38.6,23.63,70.85c-0.08,3.57-0.18,7.26-0.28,11.08l-0.01,0.38l-0.33-0.05c0.11,0.54,0.19,1.13,0.28,1.72
						c-1.34,49.14-3.96,114.06-5.57,128.73c-1.93,17.66,7.53,25.5,11.7,28.06l0.13,0.08l0.78,6.14l-0.14,0.12
						C198.97,449.09,184.33,449.67,178.42,449.67z M164.72,444.24c2.99,3.94,6.42,4.27,10.34,4.65l0.85,0.08
						c0.19,0.01,20.84,0.88,29.22-5.72l-0.16-1.28c-0.62,0.22-1.23,0.43-1.84,0.62c-0.3,0.1-0.67-0.08-0.77-0.39
						c-0.05-0.16-0.04-0.32,0.03-0.47c0.07-0.15,0.2-0.25,0.36-0.31c0.68-0.22,1.37-0.46,2.06-0.7l-0.37-2.94
						c-4.33-2.7-13.83-10.76-11.87-28.61c1.61-14.66,4.22-79.56,5.57-128.63c-0.08-0.54-0.17-1.14-0.26-1.74
						c-0.03-0.16,0.01-0.32,0.11-0.45c0.06-0.08,0.13-0.14,0.21-0.18c0.1-3.72,0.19-7.31,0.27-10.76
						c-3.31-31.26-19.36-62.76-23.27-70.04c-0.53,0.93-1.04,1.94-1.56,3.05c0.12,0.21,0.5,0.87,1.08,1.95
						c0.16,0.3,0.05,0.67-0.25,0.83c-0.28,0.15-0.67,0.04-0.83-0.25c-0.25-0.47-0.46-0.84-0.62-1.14c-0.6,1.39-1.05,2.62-1.42,3.8
						c-6.39,20.57-14.62,54.83-17.55,101.22l0,0.07c0.01,0.2,0.63,20.92,4.91,36.52c0.06,0.23,0.03,0.48-0.09,0.69
						c-0.12,0.21-0.31,0.36-0.55,0.42c-0.47,0.13-0.98-0.16-1.11-0.63c-1.97-7.18-3.17-15.46-3.9-22.29
						c-0.41,11.74-0.45,23.67-0.11,35.53c1.43,49.73,4.53,75.27,10.33,85.32c0.42,0.2,0.89,0.39,1.39,0.58
						c0.31,0.12,0.47,0.47,0.36,0.79C165.2,444.09,165,444.26,164.72,444.24z M174.22,202.65
						C174.22,202.65,174.22,202.65,174.22,202.65l0.21-0.11L174.22,202.65z M395.89,449.66c-5.83,0-20.75-0.56-27.47-6.02
						l-0.14-0.12l0.3-2.36v0l0.48-3.78l0.13-0.08c4.16-2.55,13.63-10.4,11.7-28.06c-1.6-14.56-4.21-79.16-5.55-128.03l0-0.17
						l0.14-0.1c0.07-0.61,0.16-1.24,0.26-1.87l-0.42,0.84l-0.04-1.3c-0.1-3.86-0.2-7.6-0.28-11.18
						c3.41-32.27,20.28-64.71,23.63-70.89l0.28-0.51l0.3,0.5c0.7,1.2,1.37,2.5,2.04,3.97l0.02,0.04l0-0.01l0.26,0.61
						c0.7,1.61,1.21,2.97,1.62,4.28c6.41,20.62,14.66,54.97,17.58,101.47c-0.01,0.24-0.66,21.13-4.93,36.71
						c-0.02,0.06-0.01,0.13,0.02,0.18c0.03,0.06,0.08,0.1,0.15,0.11c0.17,0.01,0.27-0.06,0.3-0.17c2.45-8.93,3.71-19.59,4.34-26.96
						l0.66,0.01c0.59,13.3,0.69,26.88,0.3,40.38l0,0c-1.43,49.69-4.53,75.26-10.35,85.49l0.05-0.02l-0.6,0.93
						c-3.33,5.18-7.32,5.56-11.55,5.96l-0.82,0.08C398.25,449.63,397.36,449.66,395.89,449.66z M368.98,443.25
						c8.35,6.58,29.06,5.73,29.26,5.72l0.8-0.08c3.96-0.38,7.41-0.71,10.42-4.75c-0.05,0.02-0.1,0.04-0.16,0.06
						c-0.28,0.11-0.67-0.04-0.79-0.35c-0.12-0.32,0.04-0.67,0.36-0.79c0.88-0.34,1.47-0.62,1.79-0.78
						c5.66-10.05,8.82-36.31,10.23-85.12c0.34-11.84,0.31-23.74-0.11-35.46c-0.73,6.8-1.93,15.06-3.89,22.22
						c-0.13,0.47-0.65,0.76-1.11,0.63c-0.23-0.06-0.43-0.21-0.54-0.42s-0.15-0.45-0.09-0.68c4.26-15.5,4.91-36.32,4.91-36.52
						c-2.92-46.41-11.16-80.7-17.55-101.29c-0.35-1.12-0.78-2.27-1.33-3.6c-0.14,0.26-0.31,0.57-0.51,0.94
						c-0.16,0.29-0.55,0.4-0.83,0.25c-0.29-0.16-0.41-0.53-0.25-0.83c0.46-0.86,0.79-1.44,0.97-1.76c-0.54-1.18-1.08-2.25-1.65-3.25
						c-3.9,7.28-19.96,38.8-23.27,70.08c0.08,3.39,0.17,6.96,0.27,10.65c0.01,0,0.01,0,0.02,0c0.15,0.02,0.3,0.11,0.39,0.24
						c0.1,0.13,0.14,0.29,0.11,0.45c-0.11,0.75-0.22,1.5-0.33,2.26c-0.01,0.1-0.05,0.19-0.11,0.26
						c1.35,48.84,3.95,113.31,5.55,127.84c1.96,17.85-7.54,25.91-11.87,28.61l-0.39,3.04c0.6,0.21,1.2,0.41,1.79,0.61
						c0.15,0.05,0.28,0.16,0.35,0.3c0.07,0.15,0.09,0.31,0.03,0.47c-0.1,0.31-0.46,0.49-0.77,0.39c-0.51-0.17-1.04-0.35-1.56-0.53
						L368.98,443.25z M287.03,445.91l-0.09-0.01c-0.03,0-0.06,0-0.09,0c-42.08,0-77.55-7.23-77.9-7.3
						c-3.58-0.76-17.55-8.36-15.25-29.3c1.54-14.07,4.06-75.38,5.44-123.81l0.01-0.21l0.2-0.08l-0.16-1.04
						c0.58-20.67,0.9-37.14,0.9-46.45c0-0.13-0.11-0.24-0.24-0.24c-0.13,0-0.24,0.11-0.24,0.24c0,5.36-0.1,12.91-0.3,22.44
						l-0.66,0.05c-5.13-31.37-21.21-61.16-23.02-64.45l-0.09-0.17l0.1-0.16c2.93-4.64,6.58-8.54,10.87-11.61l0.19,0.27l-0.19-0.27
						c13.83-9.89,27.35-16.82,34.17-20.07c3.05-1.45,6.32-2.19,9.69-2.19h12.06l0.1,0.12c1.47,1.74,15.24,17,44.5,17l0.06-0.01
						l0.08,0.02c29.19-0.01,42.96-15.27,44.43-17.01l0.1-0.12h12.06c3.38,0,6.64,0.74,9.69,2.19c6.83,3.25,20.35,10.19,34.17,20.07
						c4.29,3.06,7.94,6.97,10.87,11.61l0.1,0.16l-0.09,0.17c-1.82,3.29-17.89,33.08-23.02,64.45l-0.66-0.05
						c-0.2-9.55-0.3-17.1-0.3-22.44c0-0.13-0.11-0.24-0.24-0.24c-0.13,0-0.24,0.11-0.24,0.24c0,33.89,4.12,150.98,6.38,171.6
						c2.29,20.94-11.67,28.54-15.25,29.3c-0.36,0.07-35.89,7.31-78.07,7.31L287.03,445.91z M199.79,285.67
						c-1.38,48.42-3.89,109.63-5.43,123.7c-2.24,20.45,11.27,27.84,14.73,28.58c0.35,0.07,35.8,7.3,77.93,7.3l0.08,0.01
						c42.14-0.01,77.58-7.23,77.93-7.3c3.46-0.73,16.97-8.13,14.73-28.58c-2.26-20.63-6.38-137.77-6.38-171.67
						c0-0.5,0.4-0.9,0.9-0.9c0.5,0,0.9,0.4,0.9,0.9c0,4.69,0.08,11.09,0.23,19.05c5.6-29.75,20.27-57.25,22.42-61.16
						c-2.86-4.49-6.42-8.28-10.59-11.26c-13.78-9.85-27.27-16.77-34.07-20.01c-2.97-1.41-6.13-2.13-9.41-2.13h-7.34
						c-0.09,0.17-0.22,0.41-0.39,0.71c-0.17,0.28-0.56,0.38-0.84,0.22c-0.14-0.08-0.24-0.22-0.28-0.38
						c-0.04-0.16-0.02-0.32,0.07-0.46c0.02-0.03,0.03-0.06,0.05-0.08h-3.03c-1.94,2.24-15.92,17.11-44.9,17.11l-0.08-0.01
						c-29.01-0.02-42.96-14.87-44.89-17.1h-2.55c0.02,0.1,0.02,0.2-0.01,0.29c-0.05,0.16-0.15,0.29-0.3,0.36
						c-0.28,0.15-0.68,0.04-0.83-0.25c-0.08-0.15-0.15-0.29-0.22-0.41h-7.86c-3.28,0-6.44,0.72-9.41,2.13
						c-6.81,3.24-20.28,10.15-34.07,20.01c-4.17,2.98-7.73,6.76-10.59,11.26c2.14,3.91,16.82,31.41,22.42,61.16
						c0.16-7.95,0.23-14.34,0.23-19.05c0-0.5,0.41-0.9,0.9-0.9s0.9,0.4,0.9,0.9c0,9.31-0.32,25.79-0.9,46.41l0.14,1.06
						C200,285.36,199.93,285.54,199.79,285.67z M287.03,178.17l-0.09-0.01c-0.01,0-0.03,0-0.04,0c-24.72,0-38.12-10.79-42.74-15.43
						l-0.87-0.87l1.19,0.32c5.5,1.49,20.58,4.96,41.64,4.96c14.44,0,29.14-1.74,43.7-5.17l1.1-0.26l-0.79,0.81
						c-3.58,3.67-17.26,15.65-43.05,15.65L287.03,178.17z M245.54,163.13c5.26,4.93,18.36,14.37,41.48,14.37l0.08,0.01
						c23.86-0.02,37.21-10.33,41.75-14.64c-14.23,3.27-28.59,4.93-42.71,4.93C266.38,167.8,251.87,164.76,245.54,163.13z"/>
				</g>
				<g>
					<path d="M308.85,180.17c0.02,0,0.05,0,0.07-0.01c0.77-0.2,1.52-0.41,2.24-0.62c0.15-0.04,0.23-0.2,0.19-0.35
						c-0.05-0.15-0.2-0.23-0.35-0.19c-0.72,0.21-1.46,0.42-2.22,0.62c-0.15,0.04-0.24,0.19-0.2,0.34
						C308.61,180.09,308.73,180.17,308.85,180.17z"/>
				</g>
				<g>
					<path d="M304.33,181.18c0.02,0,0.03,0,0.05,0c0.78-0.15,1.54-0.31,2.28-0.47c0.15-0.03,0.25-0.18,0.21-0.34
						c-0.03-0.15-0.18-0.25-0.34-0.21c-0.74,0.16-1.49,0.32-2.26,0.47c-0.15,0.03-0.25,0.18-0.22,0.33
						C304.08,181.09,304.2,181.18,304.33,181.18z"/>
				</g>
				<g>
					<path d="M290.52,182.66C290.52,182.66,290.52,182.66,290.52,182.66c0.8-0.03,1.57-0.06,2.33-0.1c0.16-0.01,0.27-0.14,0.27-0.3
						c-0.01-0.15-0.13-0.27-0.28-0.27c0,0-0.01,0-0.02,0c-0.76,0.04-1.53,0.08-2.31,0.1c-0.16,0.01-0.28,0.14-0.27,0.29
						C290.24,182.54,290.36,182.66,290.52,182.66z"/>
				</g>
				<g>
					<path d="M295.14,182.4c0.01,0,0.01,0,0.02,0c0.79-0.06,1.56-0.13,2.32-0.21c0.16-0.02,0.27-0.15,0.25-0.31
						c-0.02-0.15-0.14-0.27-0.31-0.25c-0.75,0.08-1.52,0.15-2.3,0.21c-0.16,0.01-0.27,0.15-0.26,0.3
						C294.87,182.29,295,182.4,295.14,182.4z"/>
				</g>
				<g>
					<path d="M299.75,181.92c0.01,0,0.03,0,0.04,0c0.78-0.1,1.55-0.22,2.3-0.34c0.15-0.02,0.26-0.17,0.23-0.32
						c-0.02-0.15-0.16-0.25-0.32-0.23c-0.75,0.12-1.51,0.23-2.29,0.33c-0.15,0.02-0.26,0.16-0.24,0.32
						C299.49,181.81,299.61,181.92,299.75,181.92z"/>
				</g>
				<g>
					<path d="M321.79,175.18c0.05,0,0.09-0.01,0.13-0.03c0.68-0.37,1.36-0.76,2.02-1.16c0.13-0.08,0.18-0.25,0.09-0.39
						c-0.08-0.13-0.25-0.17-0.39-0.09c-0.66,0.4-1.33,0.79-2,1.15c-0.14,0.07-0.19,0.25-0.11,0.38
						C321.6,175.13,321.69,175.18,321.79,175.18z"/>
				</g>
				<g>
					<path d="M325.75,172.76c0.05,0,0.11-0.02,0.16-0.05c0.65-0.45,1.29-0.91,1.89-1.37c0.12-0.1,0.15-0.27,0.05-0.4
						c-0.1-0.12-0.27-0.14-0.4-0.05c-0.59,0.46-1.22,0.91-1.86,1.35c-0.13,0.09-0.16,0.26-0.07,0.39
						C325.57,172.72,325.66,172.76,325.75,172.76z"/>
				</g>
				<g>
					<path d="M332.71,166.67c0.08,0,0.16-0.03,0.21-0.1c0.52-0.6,1.02-1.21,1.47-1.82c0.09-0.13,0.07-0.3-0.06-0.39
						c-0.12-0.1-0.3-0.07-0.39,0.06c-0.45,0.6-0.93,1.2-1.44,1.79c-0.1,0.12-0.09,0.3,0.03,0.4
						C332.58,166.64,332.64,166.67,332.71,166.67z"/>
				</g>
				<g>
					<path d="M317.62,177.2c0.04,0,0.07-0.01,0.11-0.02c0.71-0.3,1.42-0.63,2.12-0.97c0.14-0.07,0.2-0.24,0.13-0.38
						c-0.07-0.14-0.23-0.2-0.38-0.13c-0.69,0.33-1.4,0.66-2.1,0.96c-0.14,0.06-0.21,0.23-0.15,0.37
						C317.41,177.14,317.51,177.2,317.62,177.2z"/>
				</g>
				<g>
					<path d="M313.3,178.85c0.03,0,0.06,0,0.09-0.01c0.75-0.25,1.48-0.52,2.19-0.79c0.14-0.06,0.22-0.22,0.16-0.36
						c-0.06-0.15-0.22-0.22-0.36-0.16c-0.7,0.27-1.43,0.53-2.17,0.78c-0.15,0.05-0.23,0.21-0.18,0.36
						C313.07,178.78,313.18,178.85,313.3,178.85z"/>
				</g>
				<g>
					<path d="M285.88,182.72c0.32,0,0.64,0,0.96,0c0.46,0,0.91,0,1.36-0.01c0.16,0,0.28-0.13,0.28-0.29c0-0.15-0.13-0.28-0.28-0.28
						c0,0,0,0,0,0c-0.76,0.01-1.55,0.01-2.31,0c0,0,0,0,0,0c-0.15,0-0.28,0.12-0.28,0.28C285.59,182.59,285.72,182.72,285.88,182.72
						z"/>
				</g>
				<g>
					<path d="M329.42,169.93c0.07,0,0.13-0.02,0.19-0.07c0.59-0.51,1.17-1.05,1.71-1.59c0.11-0.11,0.11-0.29,0-0.4
						c-0.11-0.11-0.29-0.11-0.4,0c-0.54,0.53-1.1,1.06-1.69,1.57c-0.12,0.1-0.13,0.28-0.03,0.4
						C329.26,169.9,329.34,169.93,329.42,169.93z"/>
				</g>
				<g>
					<path d="M256.35,177.18c0.04,0.02,0.07,0.02,0.11,0.02c0.11,0,0.21-0.06,0.26-0.17c0.06-0.14,0-0.31-0.15-0.37
						c-0.71-0.31-1.41-0.64-2.09-0.98c-0.14-0.07-0.31-0.01-0.38,0.13c-0.07,0.14-0.01,0.31,0.13,0.38
						C254.92,176.54,255.63,176.87,256.35,177.18z"/>
				</g>
				<g>
					<path d="M252.17,175.11c0.04,0.02,0.09,0.04,0.14,0.04c0.1,0,0.19-0.05,0.25-0.14c0.08-0.14,0.03-0.31-0.11-0.38
						c-0.68-0.38-1.35-0.78-1.98-1.17c-0.13-0.08-0.3-0.04-0.39,0.09c-0.08,0.13-0.04,0.31,0.09,0.39
						C250.81,174.33,251.48,174.73,252.17,175.11z"/>
				</g>
				<g>
					<path d="M248.23,172.63c0.05,0.04,0.11,0.05,0.16,0.05c0.09,0,0.17-0.04,0.23-0.12c0.09-0.13,0.06-0.3-0.07-0.39
						c-0.63-0.45-1.25-0.92-1.84-1.39c-0.12-0.1-0.3-0.08-0.4,0.04c-0.1,0.12-0.08,0.3,0.04,0.4
						C246.96,171.7,247.58,172.17,248.23,172.63z"/>
				</g>
				<g>
					<path d="M241.36,166.32c0.06,0.07,0.14,0.1,0.22,0.1c0.06,0,0.13-0.02,0.18-0.06c0.12-0.1,0.14-0.28,0.04-0.4
						c-0.5-0.6-0.96-1.22-1.39-1.83c-0.09-0.13-0.26-0.16-0.39-0.07c-0.13,0.09-0.16,0.26-0.07,0.39
						C240.38,165.07,240.86,165.7,241.36,166.32z"/>
				</g>
				<g>
					<path d="M244.59,169.7c0.05,0.05,0.12,0.07,0.19,0.07c0.08,0,0.15-0.03,0.21-0.09c0.11-0.12,0.1-0.29-0.02-0.4
						c-0.57-0.52-1.12-1.06-1.64-1.61c-0.11-0.11-0.29-0.12-0.4-0.01c-0.11,0.11-0.12,0.29-0.01,0.4
						C243.45,168.62,244.01,169.17,244.59,169.7z"/>
				</g>
				<g>
					<path d="M262.91,179.58c0.73,0.22,1.47,0.43,2.24,0.63c0.02,0.01,0.05,0.01,0.07,0.01c0.12,0,0.24-0.08,0.27-0.21
						c0.04-0.15-0.05-0.3-0.2-0.34c-0.76-0.2-1.5-0.4-2.22-0.62c-0.15-0.04-0.31,0.04-0.35,0.19
						C262.67,179.38,262.76,179.53,262.91,179.58z"/>
				</g>
				<g>
					<path d="M276.59,182.22c0.76,0.08,1.53,0.15,2.32,0.21c0.01,0,0.01,0,0.02,0c0.15,0,0.27-0.11,0.28-0.26
						c0.01-0.16-0.1-0.29-0.26-0.3c-0.78-0.06-1.55-0.13-2.3-0.21c-0.16-0.02-0.29,0.1-0.31,0.25
						C276.33,182.06,276.44,182.2,276.59,182.22z"/>
				</g>
				<g>
					<path d="M271.98,181.62c0.75,0.12,1.52,0.23,2.3,0.33c0.01,0,0.02,0,0.04,0c0.14,0,0.26-0.1,0.28-0.25
						c0.02-0.15-0.09-0.3-0.24-0.32c-0.78-0.1-1.54-0.21-2.28-0.33c-0.17-0.02-0.3,0.08-0.32,0.23
						C271.72,181.45,271.83,181.59,271.98,181.62z"/>
				</g>
				<g>
					<path d="M281.23,182.57c0.76,0.04,1.53,0.07,2.32,0.1c0,0,0.01,0,0.01,0c0.15,0,0.28-0.12,0.28-0.27
						c0-0.16-0.12-0.29-0.27-0.29c-0.78-0.02-1.55-0.06-2.31-0.1c-0.14,0-0.29,0.11-0.3,0.27
						C280.96,182.43,281.07,182.57,281.23,182.57z"/>
				</g>
				<g>
					<path d="M258.5,178.07c0.71,0.28,1.45,0.54,2.19,0.8c0.03,0.01,0.06,0.02,0.09,0.02c0.12,0,0.23-0.07,0.27-0.19
						c0.05-0.15-0.03-0.31-0.18-0.36c-0.74-0.25-1.47-0.52-2.17-0.79c-0.15-0.06-0.31,0.02-0.36,0.16
						C258.28,177.85,258.36,178.02,258.5,178.07z"/>
				</g>
				<g>
					<path d="M267.41,180.75c0.74,0.17,1.5,0.32,2.28,0.47c0.02,0,0.04,0.01,0.05,0.01c0.13,0,0.25-0.09,0.28-0.23
						c0.03-0.15-0.07-0.3-0.22-0.33c-0.77-0.15-1.53-0.3-2.26-0.47c-0.16-0.04-0.3,0.06-0.34,0.21
						C267.16,180.56,267.26,180.72,267.41,180.75z"/>
				</g>
				<g>
					<path d="M194.11,444.71c0.02,0,0.04,0,0.06-0.01c0.74-0.16,1.48-0.33,2.24-0.52c0.15-0.04,0.24-0.19,0.21-0.34
						c-0.04-0.15-0.19-0.24-0.34-0.21c-0.75,0.19-1.5,0.36-2.22,0.51c-0.15,0.03-0.25,0.18-0.22,0.34
						C193.86,444.62,193.98,444.71,194.11,444.71z"/>
				</g>
				<g>
					<path d="M191.81,444.61c-0.76,0.14-1.51,0.27-2.25,0.38c-0.15,0.02-0.26,0.17-0.24,0.32c0.02,0.14,0.14,0.24,0.28,0.24
						c0.01,0,0.03,0,0.04,0c0.74-0.11,1.5-0.24,2.27-0.39c0.15-0.03,0.25-0.18,0.23-0.33C192.11,444.68,191.96,444.58,191.81,444.61
						z"/>
				</g>
				<g>
					<path d="M198.55,443.62c0.02,0,0.05,0,0.07-0.01c0.72-0.2,1.46-0.41,2.21-0.64c0.15-0.04,0.23-0.2,0.19-0.35
						c-0.04-0.15-0.2-0.23-0.35-0.19c-0.74,0.22-1.47,0.43-2.19,0.63c-0.15,0.04-0.24,0.2-0.2,0.35
						C198.32,443.53,198.43,443.62,198.55,443.62z"/>
				</g>
				<g>
					<path d="M169.18,444.66c-0.75-0.17-1.49-0.36-2.2-0.57c-0.15-0.04-0.3,0.04-0.35,0.19c-0.04,0.15,0.04,0.31,0.19,0.35
						c0.72,0.21,1.47,0.41,2.23,0.58c0.02,0,0.04,0.01,0.06,0.01c0.13,0,0.24-0.09,0.28-0.22
						C169.43,444.84,169.33,444.69,169.18,444.66z"/>
				</g>
				<g>
					<path d="M178.2,445.75c-0.77-0.02-1.53-0.06-2.28-0.11c-0.14-0.01-0.29,0.11-0.3,0.26c-0.01,0.16,0.11,0.29,0.26,0.3
						c0.75,0.05,1.52,0.09,2.3,0.11c0,0,0.01,0,0.01,0c0.15,0,0.28-0.12,0.28-0.27C178.48,445.89,178.36,445.76,178.2,445.75z"/>
				</g>
				<g>
					<path d="M180.2,446.05c0,0.15,0.13,0.28,0.28,0.28c0,0,0,0,0,0c0.74-0.01,1.51-0.03,2.3-0.07c0.16-0.01,0.28-0.14,0.27-0.3
						c-0.01-0.15-0.14-0.28-0.3-0.27c-0.78,0.04-1.54,0.06-2.28,0.07C180.33,445.77,180.2,445.9,180.2,446.05z"/>
				</g>
				<g>
					<path d="M184.78,445.85c0.01,0.15,0.14,0.26,0.28,0.26c0.01,0,0.02,0,0.02,0c0.74-0.06,1.51-0.14,2.29-0.24
						c0.16-0.02,0.26-0.16,0.25-0.31c-0.02-0.15-0.16-0.27-0.31-0.25c-0.77,0.09-1.53,0.17-2.27,0.24
						C184.88,445.55,184.76,445.69,184.78,445.85z"/>
				</g>
				<g>
					<path d="M173.66,445.42c-0.76-0.09-1.52-0.2-2.25-0.32c-0.15-0.03-0.3,0.08-0.32,0.23c-0.03,0.15,0.08,0.3,0.23,0.33
						c0.74,0.13,1.51,0.24,2.28,0.33c0.01,0,0.02,0,0.03,0c0.14,0,0.26-0.11,0.28-0.25C173.93,445.58,173.82,445.44,173.66,445.42z"
						/>
				</g>
				<g>
					<path d="M406.84,444.09c-0.71,0.21-1.45,0.4-2.2,0.57c-0.15,0.03-0.25,0.19-0.21,0.34c0.03,0.13,0.15,0.22,0.28,0.22
						c0.02,0,0.04,0,0.06-0.01c0.77-0.17,1.52-0.37,2.23-0.58c0.15-0.04,0.24-0.2,0.19-0.35
						C407.15,444.13,406.99,444.04,406.84,444.09z"/>
				</g>
				<g>
					<path d="M402.41,445.1c-0.73,0.12-1.49,0.23-2.25,0.32c-0.15,0.02-0.27,0.16-0.25,0.31c0.02,0.14,0.14,0.25,0.28,0.25
						c0.01,0,0.02,0,0.03,0c0.77-0.09,1.54-0.2,2.28-0.33c0.15-0.03,0.26-0.17,0.23-0.33C402.71,445.18,402.55,445.07,402.41,445.1z
						"/>
				</g>
				<g>
					<path d="M384.26,444.99c-0.73-0.11-1.48-0.24-2.25-0.38c-0.14-0.03-0.3,0.07-0.33,0.22c-0.03,0.15,0.07,0.3,0.23,0.33
						c0.77,0.14,1.52,0.27,2.27,0.39c0.01,0,0.03,0,0.04,0c0.14,0,0.26-0.1,0.28-0.24C384.52,445.16,384.41,445.01,384.26,444.99z"
						/>
				</g>
				<g>
					<path d="M388.78,445.54c-0.74-0.06-1.49-0.14-2.27-0.24c-0.14-0.02-0.3,0.09-0.31,0.25c-0.02,0.15,0.09,0.3,0.25,0.31
						c0.78,0.1,1.54,0.17,2.29,0.24c0.01,0,0.02,0,0.02,0c0.14,0,0.27-0.11,0.28-0.26C389.05,445.69,388.94,445.55,388.78,445.54z"
						/>
				</g>
				<g>
					<path d="M375.34,443.06c-0.72-0.2-1.45-0.41-2.19-0.63c-0.15-0.04-0.31,0.04-0.35,0.19c-0.05,0.15,0.04,0.31,0.19,0.35
						c0.75,0.23,1.48,0.44,2.21,0.64c0.03,0.01,0.05,0.01,0.07,0.01c0.12,0,0.24-0.08,0.27-0.21
						C375.58,443.26,375.49,443.1,375.34,443.06z"/>
				</g>
				<g>
					<path d="M379.77,444.15c-0.73-0.16-1.47-0.33-2.22-0.51c-0.15-0.04-0.3,0.05-0.34,0.21c-0.04,0.15,0.06,0.3,0.21,0.34
						c0.76,0.19,1.5,0.36,2.24,0.52c0.02,0,0.04,0.01,0.06,0.01c0.13,0,0.25-0.09,0.27-0.22
						C380.02,444.34,379.92,444.19,379.77,444.15z"/>
				</g>
				<g>
					<path d="M393.34,445.77c-0.74-0.01-1.49-0.03-2.28-0.07c-0.17-0.01-0.29,0.11-0.3,0.27c-0.01,0.16,0.11,0.29,0.27,0.3
						c0.79,0.04,1.56,0.06,2.3,0.07c0,0,0,0,0,0c0.15,0,0.28-0.12,0.28-0.28C393.62,445.9,393.49,445.77,393.34,445.77z"/>
				</g>
				<g>
					<path d="M397.89,445.64c-0.74,0.05-1.51,0.09-2.28,0.11c-0.16,0-0.28,0.13-0.27,0.29c0,0.15,0.13,0.27,0.28,0.27
						c0,0,0.01,0,0.01,0c0.78-0.02,1.55-0.06,2.3-0.11c0.16-0.01,0.27-0.15,0.26-0.3C398.18,445.74,398.06,445.63,397.89,445.64z"/>
				</g>
			</g>
		</g>
		<g>
			<path class="st2" d="M261.04,223h7.84l-11.08,20.7v12.42h-6.92V243.7L239.43,223h8.15l6.88,14.42L261.04,223z"/>
			<path class="st2" d="M288.2,253.12c-2.07,2.55-5.21,3.82-9.41,3.82c-4.21,0-7.35-1.28-9.41-3.82c-2.07-2.55-3.1-5.63-3.1-9.22
				c0-3.53,1.03-6.59,3.1-9.18c2.07-2.59,5.2-3.89,9.41-3.89c4.21,0,7.34,1.3,9.41,3.89c2.07,2.59,3.1,5.65,3.1,9.18
				C291.3,247.5,290.27,250.57,288.2,253.12z M283.08,249.58c1-1.33,1.51-3.22,1.51-5.67c0-2.45-0.5-4.34-1.51-5.67
				c-1-1.32-2.44-1.99-4.31-1.99c-1.87,0-3.31,0.66-4.33,1.99c-1.01,1.32-1.52,3.21-1.52,5.67c0,2.45,0.51,4.34,1.52,5.67
				c1.01,1.33,2.45,2,4.33,2C280.64,251.58,282.08,250.91,283.08,249.58z"/>
			<path class="st2" d="M301.12,231.63v14.76c0,1.39,0.16,2.44,0.49,3.14c0.58,1.25,1.72,1.87,3.42,1.87c2.18,0,3.67-0.88,4.47-2.65
				c0.42-0.96,0.63-2.23,0.63-3.8v-13.32h6.49v24.49h-6.22v-3.46c-0.06,0.08-0.21,0.3-0.45,0.67c-0.24,0.38-0.52,0.71-0.85,0.99
				c-1,0.9-1.97,1.51-2.9,1.84c-0.93,0.33-2.03,0.49-3.28,0.49c-3.61,0-6.05-1.3-7.3-3.91c-0.7-1.44-1.05-3.56-1.05-6.36v-14.76
				H301.12z"/>
			<path class="st2" d="M335.3,231.05c0.08,0.01,0.27,0.02,0.55,0.03v6.56c-0.4-0.05-0.76-0.08-1.08-0.09s-0.57-0.02-0.77-0.02
				c-2.58,0-4.3,0.84-5.19,2.52c-0.49,0.94-0.74,2.4-0.74,4.36v11.71h-6.45v-24.49h6.11v4.27c0.99-1.63,1.85-2.75,2.58-3.35
				c1.2-1,2.76-1.5,4.67-1.5C335.11,231.04,335.21,231.05,335.3,231.05z"/>
			<path class="st2" d="M236.71,272.29c2.33,0.76,4.21,2.16,5.64,4.2c1.16,1.65,1.94,3.43,2.36,5.34c0.42,1.92,0.63,3.75,0.63,5.48
				c0,4.4-0.89,8.13-2.65,11.19c-2.4,4.12-6.1,6.18-11.11,6.18H217.3v-33.12h14.28C233.64,271.6,235.34,271.84,236.71,272.29z
				 M224.02,277.32v21.61h6.39c3.27,0,5.55-1.61,6.84-4.83c0.71-1.77,1.06-3.87,1.06-6.31c0-3.37-0.53-5.96-1.58-7.76
				c-1.06-1.8-3.16-2.71-6.31-2.71H224.02z"/>
			<path class="st2" d="M264.82,280.69c1.71,0.76,3.12,1.97,4.23,3.62c1,1.46,1.65,3.14,1.95,5.06c0.17,1.13,0.24,2.74,0.21,4.86
				h-17.84c0.1,2.46,0.96,4.18,2.56,5.17c0.98,0.62,2.15,0.92,3.53,0.92c1.46,0,2.64-0.38,3.56-1.12c0.5-0.4,0.94-0.96,1.32-1.68
				h6.54c-0.17,1.45-0.96,2.93-2.37,4.43c-2.19,2.38-5.27,3.57-9.22,3.57c-3.26,0-6.14-1-8.63-3.01c-2.49-2.01-3.74-5.28-3.74-9.8
				c0-4.24,1.12-7.49,3.37-9.76c2.25-2.26,5.17-3.39,8.76-3.39C261.19,279.55,263.11,279.93,264.82,280.69z M255.24,286.23
				c-0.91,0.93-1.47,2.19-1.71,3.79h11.03c-0.12-1.7-0.68-2.99-1.71-3.87c-1.02-0.88-2.29-1.32-3.8-1.32
				C257.42,284.82,256.15,285.29,255.24,286.23z"/>
			<path class="st2" d="M278.27,296.87c0.13,1.14,0.43,1.94,0.88,2.42c0.8,0.85,2.27,1.28,4.43,1.28c1.26,0,2.27-0.19,3.01-0.56
				c0.74-0.38,1.12-0.94,1.12-1.68c0-0.72-0.3-1.27-0.9-1.64c-0.6-0.38-2.83-1.02-6.7-1.93c-2.78-0.69-4.74-1.55-5.88-2.59
				c-1.14-1.02-1.71-2.48-1.71-4.4c0-2.26,0.89-4.21,2.67-5.83c1.78-1.63,4.28-2.44,7.51-2.44c3.06,0,5.56,0.61,7.49,1.83
				s3.04,3.33,3.32,6.32h-6.4c-0.09-0.82-0.32-1.48-0.7-1.96c-0.71-0.87-1.91-1.3-3.6-1.3c-1.4,0-2.39,0.22-2.99,0.65
				c-0.6,0.43-0.89,0.94-0.89,1.53c0,0.74,0.31,1.27,0.95,1.6c0.63,0.34,2.86,0.94,6.68,1.78c2.55,0.6,4.46,1.5,5.74,2.72
				c1.26,1.23,1.89,2.76,1.89,4.61c0,2.43-0.9,4.41-2.71,5.94c-1.81,1.54-4.6,2.3-8.38,2.3c-3.86,0-6.71-0.81-8.54-2.44
				c-1.84-1.63-2.76-3.7-2.76-6.21H278.27z"/>
			<path class="st2" d="M304.33,277.28h-6.5v-5.91h6.5V277.28z M297.84,280.2h6.5v24.49h-6.5V280.2z"/>
			<path class="st2" d="M321.49,280.18c1.55,0.64,2.81,1.83,3.77,3.55v-3.53h6.25v23.23c0,3.16-0.53,5.54-1.6,7.14
				c-1.83,2.76-5.33,4.14-10.51,4.14c-3.13,0-5.68-0.61-7.66-1.84c-1.98-1.23-3.07-3.06-3.28-5.5h6.97
				c0.18,0.75,0.47,1.29,0.88,1.62c0.69,0.58,1.85,0.88,3.48,0.88c2.3,0,3.85-0.77,4.63-2.31c0.51-0.99,0.76-2.65,0.76-4.99v-1.57
				c-0.61,1.05-1.27,1.83-1.97,2.36c-1.27,0.97-2.93,1.46-4.97,1.46c-3.14,0-5.66-1.1-7.54-3.31c-1.88-2.21-2.82-5.2-2.82-8.97
				c0-3.64,0.9-6.7,2.71-9.18c1.81-2.48,4.38-3.72,7.7-3.72C319.51,279.61,320.58,279.8,321.49,280.18z M323.67,297.73
				c1.03-1.13,1.54-2.93,1.54-5.4c0-2.32-0.49-4.09-1.47-5.3c-0.98-1.21-2.29-1.82-3.93-1.82c-2.24,0-3.78,1.06-4.63,3.17
				c-0.45,1.12-0.67,2.51-0.67,4.16c0,1.42,0.24,2.69,0.72,3.8c0.86,2.07,2.42,3.1,4.65,3.1
				C321.38,299.43,322.64,298.86,323.67,297.73z"/>
			<path class="st2" d="M356.08,281.6c1.61,1.32,2.41,3.53,2.41,6.59v16.49h-6.56v-14.9c0-1.29-0.17-2.28-0.51-2.97
				c-0.63-1.26-1.81-1.89-3.57-1.89c-2.15,0-3.64,0.92-4.44,2.76c-0.42,0.98-0.63,2.22-0.63,3.73v13.26h-6.4v-24.44h6.2v3.57
				c0.82-1.26,1.6-2.16,2.33-2.72c1.31-0.99,2.98-1.48,4.99-1.48C352.42,279.61,354.48,280.28,356.08,281.6z"/>
		</g>
	</g>
	<g>
		<path class="st2" d="M767.5,92.06H24.5c-6.48,0-12.7,2.57-17.29,7.15c-4.59,4.57-7.19,10.79-7.21,17.27v463.55
			c0,6.5,2.58,12.73,7.18,17.33c4.6,4.6,10.83,7.18,17.33,7.18h314.38l-27.95,62.24v33.17l164.27,0V669.1l-29.16-64.57H767.5
			c6.5,0,12.73-2.58,17.33-7.18c4.6-4.6,7.18-10.83,7.18-17.33V116.47c-0.02-6.48-2.62-12.69-7.21-17.27
			C780.2,94.63,773.98,92.06,767.5,92.06L767.5,92.06z M465.88,669.75v22.55H316.8v-22.55l30.38-65.22h88.89L465.88,669.75z
			 M782.68,580.02c0,4.03-1.6,7.89-4.45,10.74s-6.71,4.45-10.74,4.45H24.51c-4.03,0-7.89-1.6-10.74-4.45
			c-2.85-2.85-4.45-6.71-4.45-10.74V116.47c0-4.03,1.6-7.89,4.45-10.74s6.71-4.45,10.74-4.45H767.5c4.03,0,7.89,1.6,10.74,4.45
			s4.45,6.71,4.45,10.74V580.02z"/>
		<path class="st2" d="M764.08,528.96H27.98c-2.57,0-4.66,2.09-4.66,4.66c0,1.24,0.49,2.42,1.36,3.3s2.06,1.36,3.29,1.36h736.1
			c1.23,0,2.42-0.49,3.29-1.36c0.87-0.87,1.36-2.06,1.36-3.3c0-1.23-0.49-2.42-1.36-3.29C766.5,529.45,765.31,528.96,764.08,528.96z
			"/>
	</g>
	<rect x="466.22" y="159.95" class="st3" width="245.43" height="16.97"/>
	<rect x="466.22" y="186.06" class="st4" width="245.43" height="16.97"/>
	<rect x="51.94" y="159.95" class="st4" width="57.01" height="56.57"/>
	<rect x="51.94" y="226.1" class="st4" width="57.01" height="56.57"/>
	<rect x="51.94" y="292.24" class="st4" width="57.01" height="56.57"/>
	<rect x="51.94" y="358.39" class="st4" width="57.01" height="56.57"/>
	<rect x="466.22" y="221.74" class="st5" width="245.43" height="7.83"/>
	<rect x="466.22" y="236.97" class="st5" width="245.43" height="7.83"/>
	<rect x="466.22" y="252.21" class="st5" width="245.43" height="7.83"/>
	<rect x="466.22" y="267.44" class="st5" width="245.43" height="7.83"/>
	<rect x="466.22" y="282.67" class="st5" width="114.88" height="7.83"/>
</g>
</svg>
